<?xml version="1.0" encoding="UTF-8"?>
<svg version="1.1" viewBox="0 0 1662 1920" width="1662" height="1920" xmlns="http://www.w3.org/2000/svg">
<path transform="translate(0)" d="m0 0h1662v1920h-1662z" fill="#FDFDFD"/>
<path transform="translate(402,355)" d="m0 0h6l1 1h13l6 1 1 5 10 1 12 3 1 3 7 2 2 4h7l11 6h6l2-3 3 1v4l5 1v3l9 1 2 2v4l5 2v3l5-2 5 6v2l7 2 1 1v5l-1 5 2 8 7 3 16 9 6 2 3 3 12 7 7 1 5 4 9 3 7 4 3 3 6 2 3 4v4l6 1 3 8v3l6 2 6-1 6 3 7 5 7 2 4 6 9 9 5 2 12-2 4-3 10-4 8-1 7 2 4 3 7 3 1 1h7l6 3 8 3 1 3h7l4-1 1 1h8l5 4 11 3 10 4 9 2 6 2 5 3 14 4v3l8 1 4 3 12 5 3 3 7 2 3 1 3 5 10 6 10 2 8 6 4 1 8 5 9 3 5 1 4 5 9 4 4 4 7 3 7 2 16 8 9 3 11 3 11 7 5 4 4 4 6 3 5 6v2h5l3-1 2 1-1 5 1 2 12 6 16 9 10 9v3l3 1 4 7 9 2 9 6 6 7 11 9 3 1v4l5 2v3l4 2v2l5 2 5 4 6 9 5 3 6 9 3 8v6l9 3 1 3-1 2h2l3 5 3 1v2l6-1-1 3 6 1 3 5 1 8h4l2 8-2 5 1 7-2 9-4 10-2 6v2l-2 1v3h2v2l4 1v6l-3 5 1 7 2 2-1 12-2 7 1 4-1 11v21l5 9 1 1h11l3-6h6l3 2 3-1 3-5h8l5-6 2-1h9l2 5 13 1 1-3 4-1 1 1h7l4 4 4 6 4 5 5 15 4 6 4 14 1 2v8l-2 8h-2l1 19 2 3v5l-1 1v10l4 6 15 8 2 3 10-1 5 3-2 16 2 6 5 2 9 5 6 5 5 9 9 3 6 9 17 9 6 6 9 2 7 6 7 1 7 2h4l3 4 8 4 4 4 10 1 13 8 6 11-1 4-3 2-1 10-1 2-6 2v2l3 1v3h-2v7l-2 5-2 7-5 6-5 3-3 7-3 2h-3l-1 3h-3l-1 4-16 15-7 6-9 3-2 7-7 1-2 6-5 5-22 11-5 5-5 4-6 1-4 10-10 9-6 4-5 5-5 4-6 7-4 4-2 4-10 6-18 9-7 4-7 1-6 5-7 3-15 5-6 3-3 3-12 2-3 2h-9l-5 5-11 9-13 5-14 10-10 8-7 4h-12l-6 4h-2v2l-5 2-10 1-5-1-2 1-13 2-4 2-3 5-3-1h-11l-3 1-7-3-16-3-3-1-2-3-6-2-11-1-4-1-8-1-10 4-3 1v-2l-9 3-5 1-6 2-9 8-6 8-6 5-16 8h-2l-2 4-5 7-4 10-4 4-9 7-12 5-19 4-6 4-5 6-10 2-6 1-2 4-5 4h-2l-2 6-3 5-4 1-2 4-7 5h-2l-2 6-6 5-10 4h-8l-10 4-6 3h-11l-1 3h-6l-2-1-1 5-3 2v8l-6 5-3 4-8 1-2 4-7 10-5 8-3 7h-8l-2 5-3 3 2 2 1 18v10l-3 9-7 12-7 6-5 2-5 6-4 11-3 6-7 7v11l-3 9-3 3-2 7-7 1-4 1-1-3-7 1-3 7v6l-3 3-3 6-3 2-3 7-5 5h-6l-5 8-4 3-2 4-8 2-2 3-5 2-3 1v2l-10 1-2-7v-15l-4-8-7-5-2-3-7-2-3-5-4-5-4-3-5-2-3-4-7-2-3-2-10-1-18-8-4-6-15-9-6-6-7-4-5-5-1-4-11-1-10-2-12-6h-8l-6-2h-8l-2-3-7-2-6-5-7-4-8-3-1-1-1-13-5-10-4-4-3-7-5-5-2-6-5-1-3-8-4-15-4-10-2-9v-8l2-7-1-5 2-2 2-5 2-1 2-9-4-1-3-5 5-11 4-3v-2l-2-1v-3h2l-2-4 1-4 1-2 1-13v-7l7-9-3-13 1-7 4-12-3-6 1-11 5-10 3-11v-7l2-5 1-12v-7l1-7-3-10 2-5 3-3 1-8-3-14-5-17-4-6v-9l-3-1-2-3v-6l-4-2-4-6-1-6 3-4 2-9-3-3-5-4v-4h2v-3l-5-1-3-3-2-7v-12l-2-10-5-3 1-3 4-4 3-8v-6l-11-6-2 5-2 1-6-5-7-1-2-3 1-11-3-7-3-9-4-2-2-7 2-3h2v-12l-2-6v-6l-3-6-4-1-1-7 2-5-3-4-2-10v-5h3l-5-7-1-9-4-5 1-6-11-13-2-10-3-7v-3l-3-2v-2l-3 2-7-1-7-5-4-2-1-2-6-1-3 1-6-5-2-7 2-10 3-2 1-6 2-4h-5l-4-4-2-9-9-3-4-8-2-17-6-5-5-7 1-5 6-4v-14l4-5v-23l3-5h2v-2l5-2h4l-2-4v-3l7-4 5-1 1-5 8-4 3-2 3-5 5-2 1-5h5v-6l3 1 1-8 9-5h2v-5l4-1 2-7 8-6 14-5h15l2 2 7 1 12-6h4l-3-4-1-11 3-5 6-1-1-3 6-8 3-1 1-7-1-4 5-5 1-6 2-3 10-4 2-2-4-4v-7l4-8 4-2 6 1-1-9 3-2 5 1 1-5 7-5 7-15 6-3 6-2 4-4 8 1v-6h3l-2-5 1-4 2-2h3l-3-10 2-14 1-5h2v-12l-5 1-4-6 1-2 3-1-4-5-5-6-2-5-5-3-2-6-6-5-4-5-3-6-6-4-5-9-6-9-5-10-3-3-1-7-2-5-5-8-1-10-3-8-1-11-2-5-1-7-1-3-1-10-1-12-2-10 1-7 1-11-1-3 4-15 1-5 3-6 3-5 2-1 2-8 6-8 7-5 5-3z"/>
<path transform="translate(690)" d="m0 0h54v67h-14l-1-28-25-1v29h-14z"/>
<path transform="translate(690,149)" d="m0 0h14v25h25l1-25h14v67h-14v-29h-26v29h-14z"/>
<path transform="translate(803,18)" d="m0 0h13l3 9 5 18 3-8 4-16 1-3h14l6 24 1 3 4-11 4-14 1-2h13l-2 11-4 10-4 14-5 14h-13l-3-7-5-19-4 13-3 12-1 1h-13l-4-10-8-25-3-11z"/>
<path transform="translate(803,167)" d="m0 0h13l3 9 5 17 2-4 6-22h14l5 20 2 7 5-16 4-11h13l-1 7-5 14-4 13-4 14-1 1h-13l-3-8-5-18-5 16-2 8-1 2h-13l-4-9-4-13-5-16-2-8z"/>
<path transform="translate(893,166)" d="m0 0h16l8 4 3 3 2 9v23l2 11h-14l-2-3-8 4h-12l-6-3-4-6-1-6 2-7 5-5 14-4 8-2v-5l-1-1h-9l-3 3-1 2-12-2-1-2 4-8 4-3z"/>
<path transform="translate(892,17)" d="m0 0h18l8 5 3 5 1 14v14l1 9 1 3h-14l-2-3-5 3-3 1h-11l-8-4-3-5-1-6 3-8 6-5 11-3 9-2 1-6-8-1-5 2-2 4-12-2-1-3 4-6 6-5z"/>
<path transform="translate(769,166)" d="m0 0h16l9 4 3 7 1 31 1 8h-13l-2-3-8 4h-12l-8-5-2-5v-9l3-5 5-4 20-5 1-3-3-3-5-1-5 2-2 4-12-2-1-4 7-8z"/>
<path transform="translate(768,17)" d="m0 0h17l8 4 3 4 1 3 1 31 1 8h-13l-2-3-8 4h-12l-7-4-3-5v-10l3-5 8-5 19-4-3-6-7-1-5 3-1 3-12-2-1-3 5-8z"/>
<path transform="translate(981,148)" d="m0 0h10l6 9 5 12 3 13v19l-4 16-8 16-2 3h-10l8-24 2-16-1-21-7-21z"/>
<path transform="translate(671,148)" d="m0 0h10l-2 6-4 11-3 12-1 10v9l2 16 8 24h-10l-8-14-5-16-1-5v-20l5-17 7-14z"/>
<path transform="translate(933,167)" d="m0 0h13l1 1v48h-14z"/>
<path transform="translate(933,18)" d="m0 0h13l1 1v48h-14z"/>
<path transform="translate(704)" d="m0 0h26v25l-1 1h-25z" fill="#FEFEFE"/>
<path transform="translate(959,167)" d="m0 0h13v49h-13z"/>
<path transform="translate(959,18)" d="m0 0h13v49h-13z"/>
<path transform="translate(933)" d="m0 0h14v12l-2 1h-11l-1-1z"/>
<path transform="translate(933,149)" d="m0 0h14v12h-14z"/>
<path transform="translate(780,194)" d="m0 0h4v7l-4 5-2 1h-7l-3-2-1-5 4-4z" fill="#FEFEFE"/>
<path transform="translate(783,44)" d="m0 0h1v7l-3 5-4 2h-6l-3-3-1-4 4-4z" fill="#FEFEFE"/>
<path transform="translate(959)" d="m0 0h13v13l-13-1z"/>
<path transform="translate(902,194)" d="m0 0h5v9l-3 3-6 2-5-2-1-7 3-3z" fill="#FEFEFE"/>
<path transform="translate(959,149)" d="m0 0h13v12h-13z"/>
<path transform="translate(904,45)" d="m0 0h3v8l-5 5h-7l-3-3v-6l7-3z" fill="#FEFEFE"/>
</svg>
