<?xml version="1.0" encoding="UTF-8"?>
<svg version="1.1" viewBox="0 0 1300 1019" width="1300" height="1019" xmlns="http://www.w3.org/2000/svg">
<path transform="translate(0)" d="m0 0h1300v1019h-1300z" fill="#010101"/>
<path transform="translate(228,78)" d="m0 0h18l3 2 4-2 2 3 1 11 5 1 3 6v2h8l5-2 5 1 7 8 6 2 2-4 3 1 1 3 4 3v2h2l1 8 4 4 1 5h3l1-5 5-1 2 7 2-3 3 1v5l-1 3 3 6 4 5 2 1 1-3 4-1 8 5 2 7 3 4-1 4-3 3 3 2-2 4-4 1 4 10 7 6 6 13 9 4 5 8 1 11 6 7 7 3 8 9 3 7 2 17 2 3 10 3 3 6 2 13 4 5 5 3h9l-2-2 1-5 13 1 18-1 1-1 11-2 8-5 3-2h5l2-5 7-5h6l5 2h9l8-4 6-4h8l6-3 19-2 8-8 6-4 5-2 3-8 9-2 3-3 5-2 5-4 7-2 2-2h12l5 3 5-4h2l1-6 6-3h10l1-1h6l4 3 1-3 6 1 5 5v2h10l9-4 10-1 9-3 2-1h7l4 5 4 8 3 3h6l6-5h6l8 5 4 3 1-8 1-2 5 2 2 3 12 2 4 2 1 5h5l4 5 5-1h4l1 1v11l3 4-1 6-1 2 9-1 7 1 3 3 3 12-1 2 3 1 1 4 10 5 7 6 8 3h3l3 4v6l9 7 8 7v2l5 2 6 2 4-2 1 5 3 2 3 5 1 1 1 9 9 3 5 5v2l12-5 3-7 3 1v2h2l2 3v6l8-1 5 2 7 1 4 6 2 13 1 7-1 3 5 4 4-1 6 10 3 9v3l5 2h20l5-2 3-3h13l5 5 5 1 6 4 6 6 8 2 4 2 2 3v4l4 2 5 4v2l3-2 9 1h5l2 2h10l7 2 13 4 1 2 11 4 5 3 10-1 6 7 7 3 3 2-1 5-1 2 5 1 7 6 9 11 6 5 4 6 2 8 6 4-2 5-9 2 2 4 2 2 5 1 1 2v6l-4 5-1 4 1 10 1 4-2 2v7l-3 2v6l3 2-1 13-2 2h-4l-1 19-4 1-1 2h-3l-1 5-4 1v5l-6 7-5 5-4 2-2 4-2 1-1 6-7 3-3 2-9-1-4 3-9 1-3 5-8 5-5 7-6 2 1 5v7l-1 2-3 1-2 4h-5l3 4-2 5-1 2h-9l-9 5-5 1-4-1-1 3h-9l-7-3-3-3h-8l-6 5-3 5-10 4-14 1-2 2h-7l-5 3-4 8-5 4-9 1-7 6-2 5-5 1-5-1-1 4-3 3h-3v4l-5-1-6-10v-2h-19l-6 3h-2l-1 5-6-2-1-2 1-2-5 3-1 1h-9l-5-5-1-3h-11l-4-2-15 1-8 3h-11l-6 5h-5l-3 3-6 2-6 7-5 3h-7l-1 3-7 2-3 2h-4l-2 4-9 3-11 6-2 2h-4l-2 4-10 1-3 3-16 2-1 3-5 2-6 8-11 3-5 2-9 1-13-1-3-1-12-1h-5l-4 2-5-2-1 3h-6l-1 4-7 2-3-1-2-5-4 2-6-1-1 4-1 1-9 1-3 3-12 1-5 3-11 1-6-4-1-2-7-2h-2-10l-10-2-1 2-7-1-1-3-3-2h-11l-3-7v-15l-6-2-4-3-7 8-7-2-2-2-7-2-6-9-4-1-2-7 5-8 2-4v-8l-4-7-6-5-4-8-8-4-3-6 1-4 8-5 2-6 5-5 2-9h-2l-1-6 3-2v-8l-3-6 1-7-2-3-1-11 1-1v-23l-2-8-2-5v-27l-3-11-5-10-3-2-4-7-1-1-2-18-1-2-1-5-1-26v-11l-1-9-4-8-5-5-13-9-13-7-15-2-1-1-13 1-6 2v5l-1 1h-5v-2l-4 3h-2v6l-6 9-6 2-1 4-9 2-2 3h-16l-10-9-6-3-5-5-5-2-10-6-5-4-23-2-21-10-10-9-5-5-3-2-6-2-7-1-6 3h-12l-8-10-4-13-6-9-8-8-9-3-7-7-8-14-10-11-4-4-6-4-5-6-2-4-4-4-4-6-2-2-2-7-4-6-4-2-6-8 3-7v-27l-5-10-8-4-4-5-1-2v-8l1-2v-8l-1-5 5-4 2-27 4-9 3-1 3-10 3-12 3-3 2-10 3-8 3-1 2-5h2l-1-6 4-1 1-5 3-2 1-7 4-5v-6l3-1v-6l3-1 2 3h9l1-3v-3l5 1 1 4h5l6-7 3-5 4 1v-3l4-1 2 1-4-7v-9l5-3 14-1 4 4h9l3-2h7l7 3 2-5 6-4z" fill="#EDEDED"/>
<path transform="translate(50,704)" d="m0 0h8l1 2 2-2h6l3 3v-2l2-1h7l2 4v31h-8l-1-27-3-1v28h-8v-28h-3v28h-8z" fill="#7F7F7F"/>
<path transform="translate(1098,314)" d="m0 0h8 3 6l2 3 3-3h6l3 5v30h-8l-1-27h-2l-1 27h-8v-28h-3v28h-8z" fill="#7F7F7F"/>
<path transform="translate(101,956)" d="m0 0h7l1 2 2-2h6l1 3h2v-2l2-1h6l2 2 1 6v25h-8l-1-26-2 1-1 25h-7l-1-26-2 1-1 25h-7z" fill="#E2E2E2"/>
<path transform="translate(83,704)" d="m0 0h8v28h4v-28h8v40l-3 5-2 1h-13v-7l10-1-1-5-2 2h-6l-2-1-1-4z" fill="#7F7F7F"/>
<path transform="translate(1131,314)" d="m0 0h8v28h4v-28h8v40l-3 5-2 1h-13v-7l9-2v-4l-2 2h-6l-3-5z" fill="#7F7F7F"/>
<path transform="translate(132,956)" d="m0 0h7l1 27 3-1 1-26h7v39l-4 4h-14v-6l9-1v-3l-6 1-3-2-1-3z" fill="#E6E6E6"/>
<path transform="translate(32,704)" d="m0 0h10l4 4 1 2v29h-7l-1-2-2 2h-7l-3-5v-7l3-6 6-4h2l1-6-3 1-1 4h-8v-6l2-4z" fill="#7F7F7F"/>
<path transform="translate(1080,314)" d="m0 0h10l4 4 1 2v29h-7l-1-2-2 2h-7l-3-5v-7l3-6 8-6 1-4-3 1-2 4h-7l1-8z" fill="#7F7F7F"/>
<path transform="translate(1048,314)" d="m0 0h10l4 4 1 2v29h-7l-1-2-2 2h-7l-3-5v-7l3-6 8-6 1-4-3 1-2 4h-7l1-8z" fill="#7F7F7F"/>
<path transform="translate(55,956)" d="m0 0h10l4 4 1 4v25h-7v-2h-2v2l-6 1-5-4v-9l5-6 6-4-1-4h-2l-1 5h-6l-1-3 2-6z" fill="#DCDCDC"/>
<path transform="translate(85,956)" d="m0 0h9l5 5v28h-6-3l-6 1-4-4v-10l5-5 5-3 1-5h-2l-2 5h-6l-1-1 1-7z" fill="#E2E2E2"/>
<path transform="translate(0,704)" d="m0 0h10l4 4 1 2v29h-7l-1-2-2 2h-5z" fill="#7F7F7F"/>
<path transform="translate(18,696)" d="m0 0h8v43h-8z" fill="#7F7F7F"/>
<path transform="translate(1066,306)" d="m0 0h8v43h-8z" fill="#7F7F7F"/>
<path transform="translate(71,949)" d="m0 0h8v40h-8z" fill="#D4D4D4"/>
<path transform="translate(346,710)" d="m0 0h6l3 2 1 22h-5-2-5l-2-2v-8l7-6 1-3h-3v3h-5v-5z" fill="#777"/>
<path transform="translate(946,190)" d="m0 0h6l3 2 1 22h-5-2-5l-2-2v-8l7-6 1-3h-3v3h-5v-5z" fill="#777"/>
<path transform="translate(1096,60)" d="m0 0h6l3 3 1 20-5 1h-2-5l-2-2v-8l4-4 4-1v-4h-3v3h-5v-5z" fill="#787878"/>
<path transform="translate(496,60)" d="m0 0h6l3 3 1 20-5 1h-2-5l-2-2v-8l4-4 4-1v-4h-3v3h-5v-5z" fill="#787878"/>
<path transform="translate(796,840)" d="m0 0 7 1 2 2 1 5v16h-5-2-5l-2-2v-8l7-6 1-3h-3v3h-5v-5z" fill="#777"/>
<path transform="translate(196,840)" d="m0 0 7 1 2 2 1 5v16h-5-2-5l-2-2v-8l7-6 1-3h-3v3h-5v-5z" fill="#777"/>
<path transform="translate(1246,710)" d="m0 0 7 1 2 2 1 21h-5-2-5l-2-2v-8l6-5h2v-4h-3v3h-6l2-6z" fill="#777"/>
<path transform="translate(196,580)" d="m0 0h6l3 3 1 21h-5-2-6l-1-2v-8l7-6 1-3h-3v3h-5v-5z" fill="#777"/>
<path transform="translate(1246,190)" d="m0 0 7 1 2 2 1 21h-5-2-5l-2-2v-8l6-5h2v-4h-3v3h-6l2-6z" fill="#777"/>
<path transform="translate(646,190)" d="m0 0 7 1 2 2 1 21h-5-2-5l-2-2v-8l6-5h2v-4h-3v3h-6l2-6z" fill="#777"/>
<path transform="translate(46,190)" d="m0 0 7 1 2 2 1 21h-5-2-5l-2-2v-8l6-5h2v-4h-3v3h-6l2-6z" fill="#777"/>
<path transform="translate(796,60)" d="m0 0h6l3 3 1 21h-5-2-6l-1-2v-8l7-6 1-3h-3v3h-5v-5z" fill="#777"/>
<path transform="translate(196,60)" d="m0 0h6l3 3 1 21h-5-2-6l-1-2v-8l7-6 1-3h-3v3h-5v-5z" fill="#777"/>
<path transform="translate(1096,840)" d="m0 0 8 1 1 2v21l-5-1-1 1h-5l-2-2v-8l7-6 1-3h-3v3h-5v-5z" fill="#777"/>
<path transform="translate(496,840)" d="m0 0 8 1 1 2v21l-5-1-1 1h-5l-2-2v-8l7-6 1-3h-3v3h-5v-5z" fill="#777"/>
<path transform="translate(1246,450)" d="m0 0 8 1 1 2 1 21h-5-3l-5-1-1-1v-8l7-6 1-3h-3v3h-5v-5z" fill="#777"/>
<path transform="translate(46,450)" d="m0 0 8 1 1 2 1 21h-5-3l-5-1-1-1v-8l7-6 1-3h-3v3h-5v-5z" fill="#777"/>
<path transform="translate(1115,981)" d="m0 0h3v3h2v-3h4l1 2 1-2h6v3h2v-3h4l1 2 1-2h6v3h2v-3h4l1 2 1-2 3 1-3 8h-3l-1-3-1 3h-4l-2-7-3 7h-3l-1-3-1 3h-4l-2-7-3 7h-3l-1-3-1 3h-4z" fill="#C4C4C4"/>
<path transform="translate(1115,981)" d="m0 0h3v3h2v-3h4l1 2 1-2h6v3l3-1v7h-4l-2-7-3 7h-3l-1-3-1 3h-4z" fill="#D6D6D6"/>
<path transform="translate(1236,981)" d="m0 0h13l1 1v8h-3v-7l-2 1-1 6h-3v-7h-2v7h-3z" fill="#C9C9C9"/>
<path transform="translate(1188,981)" d="m0 0h13l1 2v7h-3v-7l-2 1-1 6h-3v-7h-2v7h-3z" fill="#D7D7D7"/>
<path transform="translate(1177,956)" d="m0 0h6l3 4-2 5-1 1h-6z" fill="#B1B1B1"/>
<path transform="translate(1212,956)" d="m0 0h6l3 5-3 5h-6z" fill="#BEBEBE"/>
<path transform="translate(1152,958)" d="m0 0h6v10l-1 2h-6v-2h4l1-2-5-1v-6z" fill="#868686"/>
<path transform="translate(1227,981)" d="m0 0h6l1 2v6l-1 1-7-1-1-4z" fill="#AFAFAF"/>
<path transform="translate(1203,981)" d="m0 0h3l2 3 1-3h3l-3 11-2 2h-4v-2l2-1-1-5z" fill="#CBCBCB"/>
<path transform="translate(1179,981)" d="m0 0h5l2 2v7h-8v-5z" fill="#D4D4D4"/>
<path transform="translate(1164,981)" d="m0 0h5l2 2v7h-7l-2-4 2-3z" fill="#BFBFBF"/>
<path transform="translate(1115,981)" d="m0 0h3v3h2v-3h4l1 6h-3l-1 3h-4z" fill="#C7C7C7"/>
<path transform="translate(1203,956)" d="m0 0h6l1 5v3 2h-2l-1-4h-2v4h-2z" fill="#555"/>
<path transform="translate(1130,958)" d="m0 0h10l1 1v7l-2-1v-6h-2v6l-2 1-1-6-2-1v7h-2z" fill="#C4C4C4"/>
<path transform="translate(1233,956)" d="m0 0 3 1-2 1 3 2v5l-5 1-1-1v-7z" fill="#898989"/>
<path transform="translate(1134,981)" d="m0 0h4l1 2 1-2h2l-1 8-4 1z" fill="#CFCFCF"/>
<path transform="translate(1219,981)" d="m0 0h6v2h-4v5l4-1-1 3h-5l-2-5z" fill="#CACACA"/>
<path transform="translate(1222,956)" d="m0 0h2l1 3 2-3 2 1-2 4 3 5-4-2-1-1-1 3h-2z" fill="#B2B2B2"/>
<path transform="translate(1173,978)" d="m0 0h3v12h-3z" fill="#CFCFCF"/>
<path transform="translate(1161,958)" d="m0 0 5 1v3l-4 1 4 1v2h-5l-2-5z" fill="#A2A2A2"/>
<path transform="translate(91,974)" d="m0 0h1v8l-4 1-1-5z" fill="#010101"/>
<path transform="translate(1214,957)" d="m0 0 4 1 1 5-5 2z" fill="#010101"/>
<path transform="translate(1196,981)" d="m0 0h5l1 2v7h-3v-7l-3 1z" fill="#CBCBCB"/>
<path transform="translate(1179,957)" d="m0 0 5 2-1 5-4 1z" fill="#010101"/>
<path transform="translate(4,711)" d="m0 0h3l-1 6-6 3v-4h3z" fill="#010101"/>
<path transform="translate(61,974)" d="m0 0h1v8l-4 1-1-4z" fill="#010101"/>
<path transform="translate(1236,981)" d="m0 0h5l-2 9h-3z" fill="#DADADA"/>
<path transform="translate(1154,981)" d="m0 0 3 1-3 8h-3l1-4z" fill="#D6D6D6"/>
<path transform="translate(1086,333)" d="m0 0h1v9l-4-1 1-6z" fill="#010101"/>
<path transform="translate(1054,333)" d="m0 0h1v9l-4-1 1-6z" fill="#010101"/>
<path transform="translate(1241,981)" d="m0 0 3 1v8h-3l-1-8z" fill="#D1D1D1"/>
<path transform="translate(1193,981)" d="m0 0 3 1v8h-3l-1-8z" fill="#D1D1D1"/>
<path transform="translate(1204,956)" d="m0 0h5l1 5v3 2h-2l-1-4-3 1v-2h4l-1-3z" fill="#C4C4C4"/>
<path transform="translate(38,723)" d="m0 0h1v8h-4l1-6z" fill="#010101"/>
<path transform="translate(6,723)" d="m0 0h1v8h-4l1-6z" fill="#010101"/>
<path transform="translate(1179,984)" d="m0 0 4 1-1 4 2 1h-6v-5z" fill="#AFAFAF"/>
</svg>
