<?xml version="1.0" encoding="UTF-8"?>
<svg xmlns="http://www.w3.org/2000/svg" viewBox="0.0 0.0 1300.0 1056.0">
  <path transform="translate(828.0, 288.0)" d="m0 0h22l6 3 3 2 7 1 3 2 9 2 2 1h33l2 1 32 1 6 2 10 2 2 1 20 2 5 2 13 2 1 1 10 2 12 9 8 2 12 6 6 8v2h5l9 8 3 6 6 6 3 1 5 5 6 3 8 10 9 8 10 13 15 10 12 11 8 9 10 13 11 12 7 8 5 8 6 7 14 27 9 10 6 14v17l-1 9-14 30-4 10-7 6h-2l-2 5-6 9-3 9-5 8-7 13-8 9-3 2-3 7-6 4-10 5-7-1-5-2-5 1-13 10-16 4-7 6-10 7-6 6-9 1-10-3v10l-2 4-6 1 1 7-1 1h-6l-4-6v-9l-9 1-5 2-4 4-3 1h-10l-5-1-4 1-1-1h-10l-5 4-12-2-11 2-5 2-5-3-6 1h-9l-3-1-12 4h-9l-11 5h-5l-3-3-6 1-1-2 1-2h2l2-5-2-1h-5v-3l3-3-3-3v-2h-2l-7-9-8-7-5-9-4-4v-2h-2l-3-6-2-10-4-14-2-10-4-10v-4l-3-1-1-8 2-5-4-4 7-6 1-3-3-1v-7l2-4h2v-3l-4-1v-8l4-1-1-7 2-3v-8l1-3-1-4 1-5-1-4-1-5-2-6-5-3-2-1 1-6-3-5-6-7-4-9-2-6-4-1-6-12-6-7-2-5-9-3-5-5-10-4-13-5-9-6-13-1-3-6-3-3-6-2-4-4-10-2-4-4-5-8-1-4 2-4h-7l-2-2-3-15-4-3-2-6 1-6 1-5 1-3v-13l1-1 1-8 7-12 8-4 8-2 18-10 7-9 4-3 12-1 10-5 2 1h28l9-3 2-2h8l2 1 7-2z" fill="#22c55e"/>
</svg>