<?xml version="1.0" encoding="UTF-8"?>
<svg xmlns="http://www.w3.org/2000/svg" viewBox="0.0 0.0 1300.0 1019.0">
  <path transform="translate(228.0, 78.0)" d="m0 0h18l3 2 4-2 2 3 1 11 5 1 3 6v2h8l5-2 5 1 7 8 6 2 2-4 3 1 1 3 4 3v2h2l1 8 4 4 1 5h3l1-5 5-1 2 7 2-3 3 1v5l-1 3 3 6 4 5 2 1 1-3 4-1 8 5 2 7 3 4-1 4-3 3 3 2-2 4-4 1 4 10 7 6 6 13 9 4 5 8 1 11 6 7 7 3 8 9 3 7 2 17 2 3 10 3 3 6 2 13 4 5 5 3h9l-2-2 1-5 13 1 18-1 1-1 11-2 8-5 3-2h5l2-5 7-5h6l5 2h9l8-4 6-4h8l6-3 19-2 8-8 6-4 5-2 3-8 9-2 3-3 5-2 5-4 7-2 2-2h12l5 3 5-4h2l1-6 6-3h10l1-1h6l4 3 1-3 6 1 5 5v2h10l9-4 10-1 9-3 2-1h7l4 5 4 8 3 3h6l6-5h6l8 5 4 3 1-8 1-2 5 2 2 3 12 2 4 2 1 5h5l4 5 5-1h4l1 1v11l3 4-1 6-1 2 9-1 7 1 3 3 3 12-1 2 3 1 1 4 10 5 7 6 8 3h3l3 4v6l9 7 8 7v2l5 2 6 2 4-2 1 5 3 2 3 5 1 1 1 9 9 3 5 5v2l12-5 3-7 3 1v2h2l2 3v6l8-1 5 2 7 1 4 6 2 13 1 7-1 3 5 4 4-1 6 10 3 9v3l5 2h20l5-2 3-3h13l5 5 5 1 6 4 6 6 8 2 4 2 2 3v4l4 2 5 4v2l3-2 9 1h5l2 2h10l7 2 13 4 1 2 11 4 5 3 10-1 6 7 7 3 3 2-1 5-1 2 5 1 7 6 9 11 6 5 4 6 2 8 6 4-2 5-9 2 2 4 2 2 5 1 1 2v6l-4 5-1 4 1 10 1 4-2 2v7l-3 2v6l3 2-1 13-2 2h-4l-1 19-4 1-1 2h-3l-1 5-4 1v5l-6 7-5 5-4 2-2 4-2 1-1 6-7 3-3 2-9-1-4 3-9 1-3 5-8 5-5 7-6 2 1 5v7l-1 2-3 1-2 4h-5l3 4-2 5-1 2h-9l-9 5-5 1-4-1-1 3h-9l-7-3-3-3h-8l-6 5-3 5-10 4-14 1-2 2h-7l-5 3-4 8-5 4-9 1-7 6-2 5-5 1-5-1-1 4-3 3h-3v4l-5-1-6-10v-2h-19l-6 3h-2l-1 5-6-2-1-2 1-2-5 3-1 1h-9l-5-5-1-3h-11l-4-2-15 1-8 3h-11l-6 5h-5l-3 3-6 2-6 7-5 3h-7l-1 3-7 2-3 2h-4l-2 4-9 3-11 6-2 2h-4l-2 4-10 1-3 3-16 2-1 3-5 2-6 8-11 3-5 2-9 1-13-1-3-1-12-1h-5l-4 2-5-2-1 3h-6l-1 4-7 2-3-1-2-5-4 2-6-1-1 4-1 1-9 1-3 3-12 1-5 3-11 1-6-4-1-2-7-2h-2-10l-10-2-1 2-7-1-1-3-3-2h-11l-3-7v-15l-6-2-4-3-7 8-7-2-2-2-7-2-6-9-4-1-2-7 5-8 2-4v-8l-4-7-6-5-4-8-8-4-3-6 1-4 8-5 2-6 5-5 2-9h-2l-1-6 3-2v-8l-3-6 1-7-2-3-1-11 1-1v-23l-2-8-2-5v-27l-3-11-5-10-3-2-4-7-1-1-2-18-1-2-1-5-1-26v-11l-1-9-4-8-5-5-13-9-13-7-15-2-1-1-13 1-6 2v5l-1 1h-5v-2l-4 3h-2v6l-6 9-6 2-1 4-9 2-2 3h-16l-10-9-6-3-5-5-5-2-10-6-5-4-23-2-21-10-10-9-5-5-3-2-6-2-7-1-6 3h-12l-8-10-4-13-6-9-8-8-9-3-7-7-8-14-10-11-4-4-6-4-5-6-2-4-4-4-4-6-2-2-2-7-4-6-4-2-6-8 3-7v-27l-5-10-8-4-4-5-1-2v-8l1-2v-8l-1-5 5-4 2-27 4-9 3-1 3-10 3-12 3-3 2-10 3-8 3-1 2-5h2l-1-6 4-1 1-5 3-2 1-7 4-5v-6l3-1v-6l3-1 2 3h9l1-3v-3l5 1 1 4h5l6-7 3-5 4 1v-3l4-1 2 1-4-7v-9l5-3 14-1 4 4h9l3-2h7l7 3 2-5 6-4z" fill="#22c55e"/>
</svg>