<?xml version="1.0" encoding="UTF-8"?>
<svg xmlns="http://www.w3.org/2000/svg" viewBox="0.0 0.0 2048.0 1148.0">
  <path transform="translate(441.0, 172.0)" d="m0 0h3v9 4l1 1v9l-2 7-2 2 3-1v12l-7-4-2-6v3h-2v-2h-3l1 2-5 1h7l-6 7-2 1-7-4 6 4-4 4 7-3 2-2v2h13l-6 7-5 4 6-4 6-6 4 1 7 5v2l5 2 5 4 5 8v4l2-4-4-4-2-5 11-1 2-1 5 12v2h2l-1-4 10-8 2 1 1-4h2l7 11 2 3-1 1 10 4 4 1 4-10 8 4 1 3 8-3h5l1-1 6 2 7 4 1-2 11-1 3 2v2h2l3 6 3 1 1 1 1-2 4 1-6-2 2-4 4-4h2l9 15 4 2-3-3v-2h-2l-6-10v-2l10 3 11 6 4 4-3 4 3-3 4 2 2 2-4-6 11-13h1l1 11v2l2 1 1-4 6-5h3l2-4 5-5 4-2 12 3-1 4h1l3-2 9 2 8 3 5 4 6 5v2l5 2 5 4v4l1-2 5 1-3-2 1-5 4-6 8 6v2h3v-16l2-5 4-6 5 2 3 4-4 1 5 1-1 10h-2v2 1h2v2l2-1 1-3 3-2h3v-2l-7 3v-9l2-1 7 4 1 3 7 4 3 2v2l4 2 3 3v3l-4 3 5-3h2l1 1 1-4 8-6 5 9v2l4 1 2-4 3-3h2l1-2 4 14-1 3-6-4 8 7 4 8 2 5-1-4-4-9 2-4 8-9 3 4 3 7-7 8 5-4 3-2 9 7 1 3 3-1v-3l6-5h1l1 6v-5l7 4 6 4-13-10 5-6 6-4h2l1 2 3-3h10l7 2-4-4 9-3 3 1v2l2-4 5 2 7 2v-11h4l-5-2 2-4h2l1-3 2 1 1-2 8 1 7 8 3 6-11-1-5-2 2 3 9 1 5 1-1 3 5 1-1-4 5-1v-2l-5 1 3-9 7 4v2l-3 1 7 2 2 1-1-4 10-1-1 10h-2l1 5 3-1 5 4-5-5 3-3 5-3 6 2v-2h-2v-3l5-3h3v11l-1 3h2v-3-13l6 1 9 5-1 3 4 2-1-5 12 4v2h2l1 12-2 1-4 3-4 2-5-1-6-4 1-3h-5v2l-9 5-7-4 5 5 10 7v2l4-2 7-4 7-3 6-3h4v-3l7-5 2 3 2 11-4-2h-2l6 4 6 7 8 11-5-9-4-5 4-1 9 3 6 4h3l7-7 4 2 4 3-6-7h14l2 2 1-6 5-6h3v-6l-2-1-2-8h11v2l1-2 4 1-2-6-2 3-11 1 2-15 4-5-2-1-1-2-3-1 2 6-3 18-3-1v-2l-4-1v-2l-6-2-2-4h-5l3 2-7 3 7-1-1 5-2 4h-2v2l-4 1 3 2-8 11h-2l-4-8 2-5 5-7h2l-2-2-2 1-1 4-4 4-3-8v-3l2-1-3-2 2-12h3l-1-2-2-1v2l-9 2h-3v1h-11l6-7 2 1v2h2l-3-7 7-2 3 1v2l3-3v-2l5-3 5 1 4 6v16l3-2-1-1v-9l6 1 4 3 7-6 5-1h1l1-4 7-3 9 3 6 3-1 17v3l7 7-3 12-2 1-1-1v3l-2 1 2 2-11 16-8 10-1 3 2-1 2-4 9-12 5 1 6 3-1-1-8-4 2-5 4-6 4-1 9 4-1-1-8-4 3-2 8-4h2l2-4 5-7h3 3l-3-2 1-6 3-3 3 9v5l3 2 5-12 4-6 8 1-9-3-1-1-1 5-7 14-1-3-2-10-2-6h-1l-1 5-2 3h-2l-3-8v-3l2-1-2-3 9-7 1 2v4l2-7-1-1v-10l5 1 6 5 1-5 5-8h15l-3 5-6 5-1 4-2 4 3-3 3 1 2 8-9-1v2l9 1-1 5-3 4v-2h-2l2 5-4 5 4-2 3 11 6-4 2-2 5 1 2 1v-2l-4-2 12-4h2l6 13-8-1-2-3v-1l-3 2-2 4 4-3 1 13-5 5-10 8-2-4-1-7 9-8-7 6h-2v-2h-2v2l-5-1-6-2-1 2 1 4 1-5 10 3-5 5-5 4 4-2 7-5 2 8v4l2-1 15-12h1l1 15-3 4 3-1 1-3 8-7 4-4 7-2h11l-6 8-3 1-5 5h-2v2l6-4h4 12l7 14 1-6 6-8 1-1 5-4-5 1v-9l6 2 4 4-2 11h-3l2 4 2-1 1-11 2-1v-2l5-1-6-1 6-8 3 2 1-2h7l-8-2 3-3 6-3 2 3v-3l2-1-6-3-1-2 10 1 1 2 5 1 2 2-1-4-2-1 1-4 5 2 4 1 5 5-2 4-4 4h-2l-1 2h-13l-1 4-4 4-4 2 1 3 3 1 4 5v2l-9 3-4-1-1-4v4l-2 1v2h2l-2 4-3 3h-2v-2h-2l6 8 4 4-8 3 11-3 4 10-2-5v-4l12 3 6 7 1 5 1-4 11-3 1 2 4 2 8 8v2h2l10 8 1-2 2-1-3-1v2l-4-2-5-5 8-5 5 2 6 4 7 8-5-7 7-7h3l5 7-1 3 2-1 1 1 1-2 9 2-2 4-4 6-2 2 5-5 5-6 9 5-5-4-5-3-8-1-2-1 1-4-4 2-4-4v-2h-4-2l-2 4-2 2-5-1-6-5v-2h-3l-8-5 5-5 2-3 5 1-1-2h3v-2l-4-1 7-9 7-5h2v7l-2 6-4 1 3 1-2 5-3 5h-2v3l2-2 5 1v-2l-2-1 12-2h3l3-3 7-2-1 11h-3l3 3 11 3 1-1 9-3 4 1v2h2l-1-3 8 1 1 1v10 2l1 7v10l2 1-1-5v-10h2l-2-2 7-4h2v10h-2l1 3 5 1 6 4v2l6 2 7 5 1-8 3-9 6 2 14 8-2-4h5l-5-1 2-6 1-2 6 3v-2l-4-2 2-5 4-3 2 10-1-12 2-1v-2h-3l-2-10 1-4 13 4-1 4 3-1 4 11v2h-2l-2 4v1l3-2v12l-4 1h-2l4 1-1 4v1l6-8 11-10 19 2 2 3v-3l3-1-2-1 1-6 1-2 4 2 8 7 15 10 8 5-8-6 2-4 5-4h3l-1-3 9-7 1-4-3-3-2-6 10 1 5 3v-2l-2-1 1-5 4-5v-2l4-1h7l-2 7h-4l3 3v2l4 1h2l-3-2 1-9 3-3 1-4 5-4 2-2 1-2 5-3 3-1v10l-2 5 3-1 1-17 9-4v11l-1 1v5l3-1 4 3-4-4v-2l11-5 4 1-1-3 10-9h3v-2l13-1-10-1 4-5h3l-1-4v-2h-3l-3-6-1-4 2-3h2l1-4 5-7 7-3-1 7-3 6-1 3-5 1 4 1-1 4 5-2v-5l6-1v-2l3 1-3 10-2 2 1 4h3l1-4 7-2-2 11h-2v2l-3 1 4 1v3l1-2 4 2 2 5-1 5-1 3 4-4 2-1v-3l5-1h-6l3-11 4 2 5 6-1 8-2 6-2 1 1 2-1 2h2l1 5v10l5-2 2-3-3 3h-2l-2-13 4-1-2-2 7-4 4-2 13-1-2 5-6 7h11l-6 7-5 3-1 1v1l-10 1 10 1 7 4-6-4v-3l8-6 5-5h2l9 14 1 2-5 2h6l11 7v-7l1-5 5 2 5 3 2-7 2-4 3 1v-2l-3-1 6-8h5l-2-4h3v-2h-3l1-7-2 5-3-1 1 4h-10l1-4 4-3 2-1 4-6 3-2 3 1 1 1 5 3 2 6-1 1 2 1v16h2l-2 4-11 4-2 1 7 9-1 8 8-20 3 4 4 8-3 7-3 4v4l2-2 1-4 4-7h1l3 12-1 3 5 3-1-3h3v-3h2l2-4 3 1 5 6-1 4-5 7-3-1v3l-2 4-5 6-2-2v4l-1 1 5 5 3 2 4-2 5-4 7 13-2-5-2-7 5 2-3-4 9-2h5l-1 10-2 5-4 5-2 2-2 5-2 4h-4l2 5v2l1 13-1 3-8 3-4-1h-2-4v2h6v2l3 1 3 7-11-1v-3l1-1-5 2-1 2 3 2 3-1 10 2-5 5-4 1h-4l-8-2h-5v-9l-1 5h-3l2 1-1 3-7 4v-12h2v-2l-2-1v-2l-1-10 9 3v3l3-1h3l-1-4-5 1-9-4 2-4 1-3-4 5-4-2-5-4 8 8 1 5v7l-4-1-13-6-2-3 1 4v1l4 5-1-4 9 3 5 3-3 3-5 3v-2h-2v3l-10 2-3-3 1 5-6 7-4-2-5-4 2-4 5-6-9 9v2l4 2 5 4-1 5h-2l-2 5-5 5-3 5-3 3h-2-1v2l-6-2v2l4 2-8 7-12 8-3-4-3-6 1-4 1-1-4-1-2 4-4 2v2h-2l-2 4-5 5-2 4-6 9-7 6-1-2-2 7-6 7 7-6 4-1-1-4 7-7 2-1 2-5 4-4 2 11-3 1 2 1v2l3 1 3 7v3h2l-3-9 12 4v2l-5 2-1 8h2l4 4 2 1 5 3-4 1-3-1-1 3-2-1-2 7-5 2 1 3-2 1h3l7 2 7 3v2h3l-2 6-3 5-7-2-3-4h-3l-2 2h3v12l-3 2v2h-5l-3-7 1-5-2-1v-10-2l-3-3v-2h-2l-3-5 3-2-1-1v-12l-2 12-2 1-2-1v-2h-2v-2l-3-1 2-4-3 2-2-1 1 11v6h-2v-2l-6-3v-2l-2-1v4l-1 12-7-5 2-4v-1h-2l-1-2-2 2v1l-1 4-5 1v2l6-2 1 5 1-5 6 4 2 3 10-7 5 1 3 3-2-4h13v11l-1 2-17 1-1-7-1 6-3-1 3 4-1 12-8-4v-2l2-2-3-1-3 3h-12l4-5-8 6-13 1v-2h2l2-5 5 1v-2l-3-1 3-5 3-3 3-1v-2l-2-1v-2h-2v2l-14 2-3-3-1 1h-15v-2h2l2-4 4-5 15 2 3 2 4 1v-4l4-3h6l-1-1-1-6v-8l4-5-4 1-2-1-1 2-8-4-1-1-11 8-8 2-1-3-5 2-2 4-5 6h-3v2l-2 1 1 2-3 5h-2l-1 4h-2l-2-7v-2l-2 2 2 4-1 3-4-1-4 1-2-2-9-3-3-3 1 3-7 7h-2v2l-16 4 4-6-4 4h-3l-1-1v2h2l-2 4-5 4-2-1-2-11-2-1 1 3-8 6-4 1 1-2 1-1-1-2h-3v-2l-4 1-1 4h5l1 3h4l2 11-2 1 2 1 3 11h-4l3 1-2 4-5 3-3-5-3-8-2 4-3 3h-4v2 1 2l-10 5h-2l-1-2-2 3-9-4 4-3-4 1h-1l1-10 9 2-8-3 1-4-5 3-4 1 5 1-1 10-1 1v2h2l2 14 1 3h-2v2l-7 1h7l-6 7-4 4h-3v-2h-2l-3-6 3-1-4-1 5-10 1-3 5-5 2-4-15-1 4-7 3-3-1-2-4-2-5-4-1-3-2-1v2h-11l3-5 3-2v-3h-2l-2 5-5 6-6-2v2l3 1v3l1-2 2 1-3 9-3 1v3 1l4-1 1-2 6-2-7 1 3-9h3l-2-1v-2h13l-5 9-1-2v3l2 2 1-6 5-5 6 5v1l-6 1 7 1-5 8-2 2-12 2-1-1-1 4-5 4h-1l-1-11-1 11-3-1v-2h-2v-2h-2l1-3h-3l-9-3-1-2-3 1-1 4-3 4-5-1-3-5 1-2h-3-2v1l-10 1 1-6 1-2h2v-2h13v3l7-8 4-3h3v-2l12-3 1-3 6-8v-2l-2-1-1 5-4 6h-2v2l-11 2 6-9 1 2h2l-1-5v-2l-5 1 3 1-2 4-4 6-2-4-1-10v14l-1 2h-15l2-14v-1l-16-3h-3l-1-2 2-15 5 1 2 1v-2l-6-2v-2l-4-2-5-7 1-4-8 11-2 3h-2l-4-9v-1l-6-5-5-7 1 4-2 2 5 1 5 6-9 6 2 10-11-4-4-1-1-3h-2l-4-6-2 2-6 8-2 2 2 1v2h-2v11l-1 2-9 3 8-1-3 8 1 3 1-6 4-6 2-4 6-3-1 12h-2l2 5 2-1v2h3l-1-2 3-1-3-2 7-7 5-2 2 5v-5l9 3 5 2v5h4l5 11v2h-17l-5-1 2 3 3 1 2 2-1-3h16l-6 11-4-1h-1l-9-1-7-2-2-1v-12h-3l-12 3v-5l-2 5-2 2-1 9-3 1-4 6-3 3-4-1-4-5 10-1-10-1 1-3-2 2-6-1v1h-19-1l-2 4-3 3h-2l-1-4v-7h3v-3l9-3 1 3 3-3 2-4 4-5h2l1 3 2-2-1-3 1-1h-2v-7l2-5 12-5h2l-2 6-3 6-2 1 5 1-1-4 5-10h3l-1-4-11 5-7 2 4-10 4 2h3l-5-2v-2l4-3-7 4v-2h-2l-1 3-11 3 5-9 2-1 2-5 5-3h5l-1-2 1-2-4 1-5-5-6-3v2l-1 1v3l-9 10-4 1-1 4h4l5 8-14-3v-2l-6-1v-2h-2l-1-5 2-3-4 2-3-3-3-7 8-4h2l1-3 4 9-1 3 4 2v-3l3-2-3-3-2 2-3-5v-6h-9l-4 7-3-4-5-9-1 1 3 4 4 7-1 5v4 12l-6-1-7-6v-18l3-4-4 3-1-5v-8l-1 1 1 9-6 1-3-3 4-5-4 4h-2l-2 4-5 5h-2v-4l-2 4-3-2v-2l-4-2-11-12-1-4 1-2-3 2v3l-6 7-5-1-4-2 2-6 5-9-7 11-2 5 9 3-4 4-8 4-2-1 3-6-5 6-1-2v4h-11l-3-2 8-7 6-1v-2h-4v-3l-3 2-7-7 8-12-11 13-7 7-5-2-6-3v-2l3-2 4-7-6-3-1-3-5 4-2-1v-2l-8-1-4-4-2 6-4 4-4-6 4 8-3 5-1 3 4-6 4 2 4 6-15 2-12 8v-12l4-2h-3l2-5 8-14-7 11-4 4-1-5v-8l-5 2-2 4-3 2-4-11v-5l-4-1-3-2v2l3 1-1 3h-2v2l-4 3-4-2-5-3 1-4 6-5 4 1-1-3 2-2-6 4-5 4h-2v-4h-2v5l-1 1v3l-6 6 8-6 1 14-6 9h-2l-3-7v-4l2-1-5-1-9 3 2-10 2-1v-2l1-1-1-2 2-4-3 4h-2v7l-3 9-1 4 5 1 10 6v2l-18 1h-2l-2 5-3 2-2-2v-10l-1-4 5-9 3-1-2-5-1 2-10 1 4-9h2l1-4 5-2-6 1v-8l3-1v-2l-4-2-4 2 4 1-1 11h-2v-2l-5-2-5-4v-2h-2l3-10 2-4 2 1-1-2 1-6 1-3-3 6-8-6-1-1v2l7 5 1 4-3 8h-3l-2 1v-3h-2l-1-3-5 12-2 1v3l-13-2v-4l6-8 3 4-1-3-2-5-1 4h-12l-4-5-2-1v-2l-2-1 11-3h3l1 1 1-3 6-3 4 2 2 2-3-6 2-6-2 3h-2l-5-7 5 8v3l-10 4 2-7-6 2-6-9-4-3 7 8v2h-2l-2 5-2 3h-4l-5 1-6-3 5-4 3-1h1v-2l-4-2-4-4v-2l-5-1 1 1v2l1 2-1 11-2-1v-7l-6 2v-3l-2-1 1-2h-2l-1 2v-3l-2-2v-3l-5-1 1-2-8-4v-2l-2 1 5 6-2 4-6 1-1 3-2-1 1-5 3-4h-2l-1 2v-3l2-4-4 2-4-1-1 3 1-7-3 3-8-11-5 1-5 4-5-5-6-7 6 8 3 5-7 4h-2v-2l-4 1v-3h-2v-2h-2v-3h-2l-7-11 1-3-2 1-5 5-1 3-5 1-10-5 4-4 5-4h2v-2l-11 8-6-1 2 3-15 7-4 2h-3l-2-11-1-1v-6l3-5 3-2-1-2-4 2h-4l-1 2-8-18 5 13v2l-4 1v2l-2 1h-6l-3-2v2l2 1-10 6-4-1-7-7v-2h-2v2l2 1v2h2v2l4 2v4l-9 3-2-1v3l-9 4-1 1 16 10 2 2-2 11-7-1-6-3 1-2 5-2-7 2-6-1v2l-12 1 6-8v-3l-5 1 2 5-3 3h-2l1 3-3 2 4-1 2 3v-3l2-1h8l-1 6-2 5-1 1-2 5 1 1 1-2h2l4-4 5-1-1 10-1 1 1 2 3-2-1-1v-9l3-1 1-3 8-2-2 10-1 1-1 2-4 1h5l-1 3h2l1-2v-3l7-3h2l1 2 2-4 8-3h3l1 15v3 3h2l-1-4 7-7h3l7 8 2 3v2h1l1 10 1 4-11-3v-2l-3 1 1 2-7 8 6-5 2-2 2 6v5l-4 1v2l-4 3h-2v-2l-3-1-1-3v-15-2h-1v2l-7 6-3 1-4 5 4-2v13l-4-2-5-3-3-9v-3h8l-9-2 2-6 5-9h2l-2-5-2 4-10 3-4-4-1 3 3 3-8 7h-2l-2 4-6 5-3-11 1-4 4-5 2 3v-3h8l-8-2v-2h-12l4-5-6 5-3 1v3l-3 7-3 3h-2l-4-15-1-2 3-1-3-2-9-17 1-2 17 4-2 5-2 3 1-1 4-3 3 14-1-10-1-7v-2-10l-1 8-3-1-1 2-15-3v-2l-10 3-4-1 5-8h2l1 1v-7l6-5 6 8-3 5v1l3-4 3 1 4 5v-3l1-4 9-1-1-4 1-2-4-1-1-2 5 1 1-3-1-2 4 1 5 6v-3l-3-1-1-3 5-3 3-1 1-2 1 1 3-3 6-3h4v-2h-2l-9-7h-3l6 3 5 5-11 5-9-7-7 6-6 8h-3l-2-2 3 5h-3l1 3-5 5-3-5-2-5-4 2 1 2-5 5h-2l-3-8v-2l-7 11-6 8-6 6h-2l-1 4-4 4-3-1-2-4 1-7 8-9h2v-2l-5 4-6 8h-2v2h-2l1 3-6 8-4-5v-8l-1 1-2 9-5 9-2-2-4-10-1-5-1 5-1-3-2 2v3h-2l-1 2-2-1-1 2-4-2 1-9-3 8-4-1-2-2v-2l-4-3-6 2-8-4-1 2h1l1 11-6 4h-2v2l5-3h2l1-2v7l-1 5-10-4-1-6-3 1-9-10 1-3h-2l-3 9-3 7h-2l1 4-4 9 1 2h4l-3-2 1-5 3-3 3 8-1-5-2-4 1-7 4-9 5 5 6 7v5l2-1 2 9 2 4-3 8v3l3-7 4 4 6 10-5 2-11 1-1-2-2-1-6-14v-2h7v-2h-6l-1-1-8 9h-2v-3h-2v7l7 2 10 7-1 4-6 5-4-1-5-5 5-1-12-2-7-5 2-6 3-5h-2l-4 8-2-3-3-9 2-1-3-2 2-5 5-4h2l-5-3 1 3-5 6-3-3v-2h-2l3 7-5-1-9-3-7 7-7 3-11 6-4-2-3-2v-2h-2l1-5 9-10-5 5-6 7-2 1-2 6h-2l-2 5-7 8-2-2-1-9-1-3 6-7h4v-2h-2v-3l-7 10-2 1-3 1 1 4v1l2-1 3 11h-4l2 1 1 5-2 10-2 2-1 5-8 5-4-8v-2h7l-6-2 2-4-5 2-2-6 1-4 4 1-5-3-5 2-2 1h-9l-10-7v-3h-2l-8-14 1 5h-2l-2 5-3 2-8-6v-2h-2l-1 4-4 6-3-1-4-6 1-5-7 7-3 4-3-1-4-6v-3l-2-1-2 4-4 2-1 3-4-1-5-6-2-1v2h2l6 8-4 2-2 4-10 3h-5v-3l-3 2-5-5-3-1-3 2-5 1-2 1-2-6v-7-2h-2l-3 5-9 8h-1l-1-10-1-2-10 6v-11l2 1-1 2 3-3-1-2-2 1-1-4-2 4-6 4-4 2v-2l-4 1-6-4 4-5 5-1 1-1 1-3 1 1v-3l-4 1h-3l-6-1-1-2h3l-1-3h2v2l2-1 2-6 3-5h2l-2-2-2-4 2-5h2l-1-3h3v-2l-14-1-2 7-1-3 1-6-6 1 2-10 4 3-3-5v-4l-1 1-2 1-1 3-10 7h-2l2-10-3 8-3-1-1 2 2 2-1 4-6 5-3-8-2-4-14-1v-2l8-6 11-1-1 5 4-1v-5h2v-2h-2l3-9h2l-1-3 10-2-3 10-1 1v4l4-1-2-3 3-8 2-4 9-3v8l2-9 6 3-4-3v-2l-13 5h-2v-2h2l2-9 3 1-2-4 6-4h2v-2l5 2v-2h15l-5 8-4-1v2l2 1h2l5-8h2l5 13 3-4 1-3-3 6-2-3-3-8v-4l12-1 1 2 3-6-4 2-1-1v2l-3 1h-9v-2h-2v2h-14l6-7 1-2h2v-3h-2v-2h-2l-3-5 12-2 1 4 1-1h2l1 2 2-5 2-4 4-5 2-4-3 2-8-6 2-4 7-5v-2h-2l-1-4h-2l-2-5v-2l-2-1-3-10 2-3-1-4 3-3h5l2 10v5l-2 3 6-5 5-2h3l-2 10-2 1-1 4-3 4 5-4v13l-1 4 1 1 1 4v7l-1 1 3 1 7-7 2 3 1 8-4 5 5-2v2l4 2 4 3-7-7 2-4v-1l-3 2-1-11 11 5 1 1v-3l-3-1 1-10 9 5 5 4 1-2-5-2-9-6v-2l8-4h2l1 5v-3l5 1-5-3 4-4 4-3 6 2 6 3-1-1-8-5 5-5 4-2 2-5 4-5h1v-3l-4-1-6-5 6-7 14-14-5 2v2l-6 1 1 3-8 8h-1v-8l6-9-6 5v-6h-2l1 5-2 1 2 2-10 5-5-2-8-9v-1h11l3 1 1-4 6-10 14 5v3l7-6 3-3 4-2 4-7 3-2 9 5 2-1v-2-12l8 6 2 1v-2l-4-2-6-5 3-3 7-3v2l5 2h1l-4-3v-2l8-3 4 1 7 6v2l13-5h4v-2l-14 5-2-1 1-5h-2l1 3h-3l-3-2v-2l-2-1 2-4 5-6 3 1v2l6 2-5-5h16l9 4-7-4 4-2 14-3 4 2v-2h-2l1-4h-4l-1 3-11 3h-5l2-10 3-3-1-2 2-2 8-2-1-2 4 1zm699 53-1 3h2zm-386 28m-24 8m321 1m-166 10m65 4 1 2zm39 3m95 1m569 2v2h2v-2zm-440 21 1 2 10 1-2-2zm487 11m-1 1m-135 11m-1329 46m541 1 1 4zm-556 13 5 5-1-4zm-19 9m1574 13 2 5h2l-2-4zm-1062 3-1 1v7l2-3v-5zm16 3-4 2 4 1zm173 17m-177 15m225 7m-198 2-1 6h2v-6zm-230 1m-261 6m798 24m17 5m542 35m-55 31m-1 1m-1 1m75 14-5 2 3 1v2l4 1v-2h-2l2-4zm-141 3-10 6 3 1 1 5 2-4 3-1-2-2 4-3zm-11 7-3 4 4-2zm-1029-374 16 7-1 2-15 6-5-2v-2l-5-2 5-5zm-21 1m-1 1m-1 1m-1 1m-1 1m-1 1m692 32m-89 13h3v3l2-2 2 5 2 7-1 4-7 5-1-10h3l-4-2v-2h-3v-2l-4-1-1-4zm223 46h1l2 13-4-1-6-4v-2zm194 20h2l3 14-6 8-3 2-6-4-3-1 1-4 6-4 1 3v-5-3l1-2h2zm-684 67h5l1 12-15-6v-2zm47 7m-1 1m428 194h1l1 9-1 3-6-1-3-3 5-5zm59-3 6 1 8 4-1 4-1 1h5v-3l12 3 7 1 7 7 2 3-4 1 5 1-1 11-12-6-4-1v-4l-3 1-2 5-7 6h-2l-3-7h3v-2h-2v-8l-2 7-1-2h-2l-3-4v-3l-3-1 1-3z" fill="#22c55e"/>
</svg>