<?xml version="1.0" encoding="UTF-8"?>
<svg xmlns="http://www.w3.org/2000/svg" viewBox="0.0 0.0 1300.0 1140.0">
  <path transform="translate(615.0, 88.0)" d="m0 0 5 1 7 1 1 1 19 1 8 10 5 6 8 7 6 10 10 9 4 4 2 5v3l3 1v3l4 2 4 4 6 4 1 4-4 4h-2l1 9 1 2 8 4 5 5v13l4 2 6 4 9 2 5 2-1 3-6 2-1 26-2 5 1 6 8 5 4 5 6 19 5 6 11 6 7 8v3h2l7 11 6 10 4 11 3 5v2l5 2 3 3 3 1 5 10v26h9l9-7h7l12 4 11 13 5 7 2 7 6 8 4 10 5 12 1 3v36l-17 3-11 1v13l2 5v3l3 1-1 14 9 4 2 2 2 6v10l-2 7v15l5 5 5 3 2-4 1-1h5l6 7 6 5v2l9 1 2-2h6l3 5v6l3 10 6 2 4 3-1 4-5 4 1 5 7 8 6 7 3 2v2l7-1v-5l7-2 2 2 2 6 3 2 1 7-1 4 6 10 2 2h5l15-6 7-2v-5l2-3 1-11 6-8 2-6 3-7-5-1-7-1-1-3-6-1-11-4-4-5v-6l2-10 5-2 2-5h10l2-5 4-6 4-1 5 5 9 3 7 6 9 1 15-1 11-8 17 1 2 5-1 4-4 1-3 13-6 4-2 3-9 2-1 23-3 7-2 6-6 3-1 5v13l7 10 3 6 6 7 12 3 3 3 13 3 12 14 4 6 3 8 3 3 1 7-2 12-4 6-1 3v10l2 4 2 8 6 12 13 20 3 6 8 8 5 2 7 2 9 4 9 3 9 10 2 2 9 2 4 6 4 4 12 1 3 3v8l-4 10-4 4-5 1-2 4-3 5-1 3-7 3-16 9-5 3-6 8-6 3-5 4-7 13-2 1-6-4-5-3 2 6 4 4 1 5-9 6-9 3h-15l-5-8 2-6 4-9v-8l-5-6-3-4-6-3-14-2 2 3-1 5h-5l-3-3h-5l-4 4-5-1-6-1-19 7-6 2-3 4h-6l-2-2-9 1-13 5h-4l-2 4-8 9-5 4-10 5-4 9-14-2-9 2h-17l-8-4-8-12-2-12-3-7-4-4v-2l-7-1-12-7-9-3v-8l-4 7-3 1-4-4 1-5 1-3-14-4-3-1-2-2-1 1h-7l-10-10 1-7-2 2-7-1-4-2h-7l-7 1-1-5-3-7-5-8v-6l1-2-5-1-4-10-3-5 1-7 5-5 1-4-6 2-9 8-9 6-8 6-5 3h-2l-2 6-5 5-7 4h-5l-1 1h-9l-3-5-12-3-11-1-1-1-18-3-10-3-4-9-1-5-6-2-1-1v-7l-3-1-2-13 7-8-4-3v-8l2-6h-2v-5l2-4-2-10 2-8 4-5 7-5 1-3 2-1h7l11 6 2 2v5l-7 7-9 3-1 6-4 4-3 2v2h7l2-4 4-1 10 5 5 2h5l-1-8-2 1h-6l-2-3 1-4 13-13 5-8 3-3 1-5h-3-7l-4-9-8-4-12-2-11-7h-7l-4 1 1 8 3 1 2 3v12l-6 7-7 1-5-3-5-13v-2l-5-2-7-6-2-8-8 1-2 5 4 8 2 10 5 10 7 3 9 1 4 4v16l4 1 3 3v6l-2 3v15l-5 1-10-11-2-4-6-3-7-1-8-9v-4l5-2 1-3-2-1-1 3-9 3-6 1-5-3-1-8-4-2-1-8 1-5h-9l-2-5 1-3-6-2h-2l-7 6 1 9 3 4-1 3h-6l1 10 4 1h8l3 3h8l1 2 11 3h10l5 7 6 2 10 1 6 9v2l4 2 6 6 1 5 1 1 2 19 1 1v10l-9 8-4 3h-17v2l-4 2-13 1-16 4-9 3-13 5-19 2-5 3h-23l-12 3-1 1-21 2-1 1-12 2-1 1-12 2-1 1-22 3h-15l-13-2-5-6-6-10-3-3-10-29v-5l-5-4-1-16-7-10-3-20-4-8-3-13-4-12-9-13-6-8-4-4-5-8-9-8-12-9-17-6-8-7-4-5-1-10-1-1-1-22-2-4-2-11-8-10-3-6-7-10 2-4-1-4-7-6-6-3v-2h-2l-5-5v-2l-3-1v-2h-2v-2h-2l-3-4-8 1-3-4-1-6-5-6-2-6-4-9-9-4-5-5-4-5v-45l1-13 1-2 1-11v-15l-2-12-8-10v-2h-3l-5-5-7-4-3-9-7-9-16-12-5-6-12-6-4-3-9-3-1-3-7-2-1-7 11-1 11-2 1-1 7-1 39-3 14-1h10l1 1h24l10-1 1-1 17-1 1-1 16-1h11l8 2 18 1 3 2h7l1-1 24-1 8-3 11-1 6-1 4 1h15l1-1h6l3 5v-6l-3-4v-4l15-3 2-5 2-2h7l-1-11h-3l-1-4 1-2 8-3 9-9h3l2-4 14-15 3-1 5-5 8-6h2l2-5 8-12 3-6 7-6-1-6 2-4 2-9 4-11 7-6 7-9 12-12 5-3 6-7h2l2-7 5-4 4-2 7-8 8-5 3-3 5-4 6-7 4-2h9l1-3 6-3h9l2-5-1-5 2-2 8 1v2l11-1 6-8z" fill="#22c55e"/>
</svg>