<?xml version="1.0" encoding="UTF-8"?>
<svg version="1.1" viewBox="0 0 1300 1056" width="1300" height="1056" xmlns="http://www.w3.org/2000/svg">
<path transform="translate(0)" d="m0 0h1300v1056h-1300z" fill="#FDFDFD"/>
<path transform="translate(227,287)" d="m0 0h18l7 3 3 2 7 1 5 3 14 3 28-1 2 1 29 1 12 3 8 1 1 1 9 1 2 1 11 1 10 2 7 2 9 1 15 11 6 1 9 4 6 4 4 6v2h5l2 4 4 1 4 5 3 5 5 5 4 2 5 5 5 2 6 9 8 7 11 12 4 5 15 10 13 12 12 16 12 13 9 11 6 8 5 6 14 27 9 10 6 14v26l-13 27-5 14-6 6-4 2-8 13-3 8-4 6-7 14-9 11-3 2-2 5-6 5-8 4-7 2-7-3-7 1-10 8-7 3-12 2-2 4-12 8-7 7-9 2-11-3 1 8-3 5-6 2 1 7-8 1-4-7v-8l-9 1-4 2-2 3-10 2-11-1-12-1-5 2-4 4-2-2-9-1-10 2-5 2-5-3-5 1h-10l-4-1-13 4h-8l-11 5-5-1-2-2h-7l-1-3 5-6h-7v-4l3-1-4-6-8-10-4-2-6-8-3-6-8-8-3-14-4-14-1-2-2-12-2-3-2-6-2-1-1-9 2-5-4-3v-2l7-5-2-4v-7l3-6-3-2v-8l4-2-1-6 2-3v-8-4l1-8-2-9-1-6-4-2-4-1v-4h2l-4-8-6-6-3-9-4-6-4-4-5-10-5-5-2-4v-3l-8-1-6-6-7-3-16-6-9-6-14-1-3-7-2-2-7-2-1-4-12-2-5-5-5-8-1-4 1-2-6-2-2-2-2-15-4-2-3-7 1-6 2-8v-8l-1-4 2-2 2-10 7-11 6-3 1-1 8-1 14-8 5-3 6-8 5-4 11-1 8-4h34l8-3 3-2h6l3 1z" fill="#010101"/>
<path transform="translate(828,288)" d="m0 0h22l6 3 3 2 7 1 3 2 9 2 2 1h33l2 1 32 1 6 2 10 2 2 1 20 2 5 2 13 2 1 1 10 2 12 9 8 2 12 6 6 8v2h5l9 8 3 6 6 6 3 1 5 5 6 3 8 10 9 8 10 13 15 10 12 11 8 9 10 13 11 12 7 8 5 8 6 7 14 27 9 10 6 14v17l-1 9-14 30-4 10-7 6h-2l-2 5-6 9-3 9-5 8-7 13-8 9-3 2-3 7-6 4-10 5-7-1-5-2-5 1-13 10-16 4-7 6-10 7-6 6-9 1-10-3v10l-2 4-6 1 1 7-1 1h-6l-4-6v-9l-9 1-5 2-4 4-3 1h-10l-5-1-4 1-1-1h-10l-5 4-12-2-11 2-5 2-5-3-6 1h-9l-3-1-12 4h-9l-11 5h-5l-3-3-6 1-1-2 1-2h2l2-5-2-1h-5v-3l3-3-3-3v-2h-2l-7-9-8-7-5-9-4-4v-2h-2l-3-6-2-10-4-14-2-10-4-10v-4l-3-1-1-8 2-5-4-4 7-6 1-3-3-1v-7l2-4h2v-3l-4-1v-8l4-1-1-7 2-3v-8l1-3-1-4 1-5-1-4-1-5-2-6-5-3-2-1 1-6-3-5-6-7-4-9-2-6-4-1-6-12-6-7-2-5-9-3-5-5-10-4-13-5-9-6-13-1-3-6-3-3-6-2-4-4-10-2-4-4-5-8-1-4 2-4h-7l-2-2-3-15-4-3-2-6 1-6 1-5 1-3v-13l1-1 1-8 7-12 8-4 8-2 18-10 7-9 4-3 12-1 10-5 2 1h28l9-3 2-2h8l2 1 7-2z" fill="#FDFDFD"/>
<path transform="translate(0,967)" d="m0 0h1300v89h-1300z" fill="#010101"/>
<path transform="translate(848,837)" d="m0 0 9 1 9 6v2h2l3 8v7l-4 10-5 5-10 3-11-2-6-4-5-9v-12l5-8 6-5z" fill="#DBDBDB"/>
<path transform="translate(312,838)" d="m0 0h9l8 4 6 7 2 7-1 8-3 6-7 6-6 2-10-1-8-5-4-6-1-3v-10l4-8 8-6z" fill="#353535"/>
<path transform="translate(396,838)" d="m0 0h18l7 3 5 4 4 8v10l-4 8-8 6-5 1h-17z" fill="#353535"/>
<path transform="translate(1e3 837)" d="m0 0h5l17 17 1-17h11l1 1v40l-5 1-7-6v-2l-4-2-4-4v-2l-3-1-1 17h-11z" fill="#CDCDCD"/>
<path transform="translate(876,837)" d="m0 0h11l1 1v27l8 1 1-29h11l1 1v27l-5 10-10 4-9-1-2-1v-2l-4-2-3-6z" fill="#CACACA"/>
<path transform="translate(1047,837)" d="m0 0h25l1 1v9l-14 1v4l12 1v10h-13v6h15v9l-1 1h-25z" fill="#C7C7C7"/>
<path transform="translate(208,332)" d="m0 0h7l1 2 2-2h5l3 3 4-3h5l2 3 1 5v27h-8v-28h-4v28h-8l-1-28h-1l-1 28h-8v-34z" fill="#A9A9A9"/>
<path transform="translate(915,837)" d="m0 0h32v12h-10v29l-1 1h-10l-1-1v-29h-10z" fill="#C8C8C8"/>
<path transform="translate(101,993)" d="m0 0h6l2 2 2-2h5l3 3 3-3 7 1 1 2v30h-6l-1-1v-22l-1-3-2-1-1 27h-7l-1-26h-2l-1 26h-7z" fill="#F3F3F3"/>
<path transform="translate(240,332)" d="m0 0h8v28h4v-27l1-1h6l1 1v37l-2 6-5 2h-10l-1-1v-6l9-1v-6l-3 3h-5l-3-7z" fill="#aaa"/>
<path transform="translate(608,91)" d="m0 0h3l13 34 4 11v3h-3l-4-10v-2h-23l-3 10-1 2h-3l1-7 15-40z" fill="#0F0F0F"/>
<path transform="translate(707,91)" d="m0 0h3l7 18 10 27v3h-3l-4-10v-2h-23l-3 10-1 2h-3l1-6 15-40z" fill="#0E0E0E"/>
<path transform="translate(275,838)" d="m0 0 9 1 5 5 1 6h-9l-1-2h-4v4l9 3 4 4 1 3v8l-2 4-7 4-9-1-5-5-1-6h9v2h5l-1-5-9-3-3-4-1-9 3-5 3-3z" fill="#353535"/>
<path transform="translate(954,837)" d="m0 0h11v30h15v11l-1 1h-25z" fill="#CACACA"/>
<path transform="translate(133,993)" d="m0 0h6l1 26h3l1-25 1-1h6v39l-2 3-3 1h-12v-6l8-1v-3l-6 1-3-3-1-3v-27z" fill="#F2F2F2"/>
<path transform="translate(344,838)" d="m0 0h10l1 29 14 1v10h-25z" fill="#353535"/>
<path transform="translate(191,332)" d="m0 0h7l5 4 1 5v26h-6l-2-3-3 3h-5l-3-4-1-6 3-7 8-6 1-5h-4v4h-8l1-7 3-3z" fill="#A9A9A9"/>
<path transform="translate(159,332)" d="m0 0h7l5 4 1 5v26h-6l-2-3-3 3h-5l-3-4-1-6 3-7 8-6 1-5h-4v4h-8l1-7 3-3z" fill="#A9A9A9"/>
<path transform="translate(86,993)" d="m0 0h8l4 4 1 2v27h-6-3l-5 1-4-2-1-2v-10l5-5 6-4v-4l-3 1-1 3h-7l1-7z" fill="#F6F6F6"/>
<path transform="translate(56,993)" d="m0 0h8l5 4 1 29h-7l-1-2-5 3-5-2-2-3v-8l5-6 5-3h2l-1-5h-2l-2 5-6-1v-6z" fill="#F5F5F5"/>
<path transform="translate(986,837)" d="m0 0h11l1 1v40l-1 1h-10l-1-1z" fill="#C2C2C2"/>
<path transform="translate(639,91)" d="m0 0 4 1 26 36 2 3 1-40h3v48l-4-1-26-36-2-2v36l-1 3h-3z" fill="#161616"/>
<path transform="translate(377,838)" d="m0 0h10v40h-10z" fill="#353535"/>
<path transform="translate(176,324)" d="m0 0h7v43h-8v-42z" fill="#aaa"/>
<path transform="translate(314,848)" d="m0 0h6l5 4 2 7-3 6-5 3-7-1-4-4-1-2v-6l3-5z" fill="#F3F3F3"/>
<path transform="translate(72,986)" d="m0 0h6v40h-7v-39z" fill="#F2F2F2"/>
<path transform="translate(555,91)" d="m0 0h3v45h24l1 3h-28l-1-1v-46z" fill="#171717"/>
<path transform="translate(708,98)" d="m0 0 3 4 7 19v2h-19l3-10z" fill="#F7F7F7"/>
<path transform="translate(609,98)" d="m0 0 2 2 8 21v2h-19l3-10z" fill="#F7F7F7"/>
<path transform="translate(497,598)" d="m0 0 5 1 3 3v20h-4v-2l-3 2-5-1-1-2v-6l5-5 2-1 1-4h-3v3h-5l1-6z" fill="#9C9C9C"/>
<path transform="translate(347,468)" d="m0 0 5 1 3 3v20h-4v-2h-3v2l-5-1-1-4 1-5 4-4 2-1 1-4h-3v3h-5l1-5 1-2z" fill="#9E9E9E"/>
<path transform="translate(406,848)" d="m0 0 9 1 4 4 1 2-1 9-6 4h-7l-1-2z" fill="#F4F4F4"/>
<path transform="translate(849,849)" d="m0 0 6 1 4 5v6l-4 5-6 1-7-4v-8z" fill="#FAFAFA"/>
<path transform="translate(672,91)" d="m0 0h3v48l-4-1-10-14 1-2h3l6 9z" fill="#040404"/>
<path transform="translate(594,163)" d="m0 0 7 2 2 3v7l-4 4h-7l-4-6 1-6z" fill="#E9E9E9"/>
<path transform="translate(690,163)" d="m0 0 5 1v2l3 1 1 5-2 5-3 2h-6l-4-4v-7l4-4z" fill="#C5C5C5"/>
<path transform="translate(1129,1018)" d="m0 0h3v4h2v-4l4 1 1 1 1-2h6l1 3 1-3 4 1 1 2 1-3h2l-1 7-1 2h-3l-1-4-2 4h-3l-2-7-3 7h-3l-1-4-2 4h-3z" fill="#E8E8E8"/>
<path transform="translate(846,164)" d="m0 0h6l4 4 1 4-3 5-2 2h-7v-14z" fill="#979797"/>
<path transform="translate(442,164)" d="m0 0h7l2 2v5l2 4-3 5h-8z" fill="#6A6A6A"/>
<path transform="translate(739,91)" d="m0 0h3v48h-3z" fill="#010101"/>
<path transform="translate(78,986)" d="m0 0h1l1 18h7l1-4h4l-1 5-7 5h-2l-3 16h-1z" fill="#1A1A1A"/>
<path transform="translate(1046,332)" d="m0 0 4 2 3 5 5 2 7 5v2h2l3 6 5 5v2l4 1 1 3 10 5 3 4-1 2-4-5-7-3-3-3v-2l-4-1-7-7-3-6-7-6-5-1z" fill="#757575"/>
<path transform="translate(663,163)" d="m0 0h8l2 3v5l-3 1v2h-4v6h-3z" fill="#696969"/>
<path transform="translate(192,339)" d="m0 0h4v5l-5 4-5 5-2 4-1-3v-10l1-1h8z" fill="#101010"/>
<path transform="translate(608,164)" d="m0 0h8l2 3-1 6 2 6-3-1-1-4-5-1v6l-2-3z" fill="#353535"/>
<path transform="translate(847,848)" d="m0 0h7l5 4 1 2v8l-4 5-2 1h-7l-5-3-2-4v-6l3-5zm2 1-7 6v8l7 4 6-1 4-5v-6l-4-5z" fill="#464646"/>
<path transform="translate(647,101)" d="m0 0 4 2 13 18-4 2-12-17-2-4z" fill="#0C0C0C"/>
<path transform="translate(474,163)" d="m0 0 3 1 4 13v2h-2v-4l-7 2-1 2h-2l3-10z" fill="#7E7E7E"/>
<path transform="translate(631,164)" d="m0 0 5 5v2h2l2-5 4-2v15h-2l-1-10-3 4-4-2v-2h-2v10h-2v-14z" fill="#353535"/>
<path transform="translate(1188,1018)" d="m0 0h12l2 3v6h-3v-7l-2 1-1 6h-2l-1-6-2-1v7h-3z" fill="#EAEAEA"/>
<path transform="translate(1236,1018)" d="m0 0h12l2 4v5h-3v-7l-2 1-1 6h-2l-1-6-2-1v7h-3z" fill="#eee"/>
<path transform="translate(1174,993)" d="m0 0h6l2 2v6l-2 2h-6z" fill="#C7C7C7"/>
<path transform="translate(818,164)" d="m0 0 2 1 4 11-1 3-3-3-5 1-2 2 2-9z" fill="#595959"/>
<path transform="translate(653,164)" d="m0 0 3 3 3 8-1 4-1-4h-7l-1 4-1-3z" fill="#595959"/>
<path transform="translate(594,163)" d="m0 0 7 2 2 3v7l-4 4h-7l-4-6 1-6zm0 2-4 4v5l3 3h6l3-4-1-6-3-2z" fill="#353535"/>
<path transform="translate(1115,1018)" d="m0 0h3v4h2v-4l4 1 1 2 1-3h2l-1 7-1 2h-3l-1-4-2 4h-3z" fill="#DADADA"/>
<path transform="translate(829,164)" d="m0 0 9 9v-8l2-1v15h-2l-7-10-1 10h-1l-1-14z" fill="#363636"/>
<path transform="translate(485,164)" d="m0 0 5 4 4 6 1-10h1v15l-9-9v9h-2z" fill="#383838"/>
<path transform="translate(503,164)" d="m0 0 2 2v4l4-2 5-4-1 4-3 2 2 4 2 5-5-4-3-3-2 7h-1z" fill="#3C3C3C"/>
<path transform="translate(1228,1018)" d="m0 0 5 1 1 1v5l-2 2-5-1-1-1v-5z" fill="#B4B4B4"/>
<path transform="translate(740,164)" d="m0 0h2v7h7v-7l2 2v10l-2 3v-7h-7v7h-2z" fill="#353535"/>
<path transform="translate(1149,995)" d="m0 0h6v7l-2 5-4-1 3-1 1-2-5-1v-6z" fill="#8F8F8F"/>
<path transform="translate(1209,993)" d="m0 0 5 1v8l-5 1-1-1v-8z" fill="#D9D9D9"/>
<path transform="translate(1179,1018)" d="m0 0h5l2 5-1 4h-6l-1-5z" fill="#D1D1D1"/>
<path transform="translate(1203,1018)" d="m0 0h3l2 3 1-3h3l-3 10-2 3-4-1 3-1z" fill="#E6E6E6"/>
<path transform="translate(526,164)" d="m0 0 3 3 3 7 5-10h2l-3 9-3 6h-2l-5-12z" fill="#353535"/>
<path transform="translate(1164,1018)" d="m0 0h5l2 6v3h-7l-1-5z" fill="#CECECE"/>
<path transform="translate(544,164)" d="m0 0h9l-2 2-6-1v6h7v1l-6 1-1 5h8v1h-9l-1-1v-13z" fill="#353535"/>
<path transform="translate(1148,1018)" d="m0 0 4 1 1 2 1-3h2l-1 7-1 2h-3l-1-4-2 3-2-5z" fill="#E0E0E0"/>
<path transform="translate(1218,993)" d="m0 0 3 1-2 1 3 2v5l-5 1-1-1v-7z" fill="#929292"/>
<path transform="translate(1129,1018)" d="m0 0h3v4h2v-4l4 1-1 4-3 4h-3z" fill="#DADADA"/>
<path transform="translate(1046,332)" d="m0 0 4 2 3 5 5 2 7 5-2 2-6-5-5-1z" fill="#838383"/>
<path transform="translate(90,1011)" d="m0 0h2v8l-5 1v-6z" fill="#090909"/>
<path transform="translate(61,1011)" d="m0 0h2v7l-2 2-4-1 1-5z" fill="#090909"/>
<path transform="translate(1227,993)" d="m0 0 2 1 3 9h-2l-1-2-4-1v3h-2l3-9z" fill="#B5B5B5"/>
<path transform="translate(777,164)" d="m0 0h2l1 4v12h-3z" fill="#747474"/>
<path transform="translate(1173,1015)" d="m0 0h3v12h-3z" fill="#C6C6C6"/>
<path transform="translate(1141,995)" d="m0 0 5 1v7h-6l1-5h3v-2z" fill="#A3A3A3"/>
<path transform="translate(695,166)" d="m0 0 3 1 1 5-2 5-3 2h-6l-2-3 7 1 3-4z" fill="#353535"/>
<path transform="translate(666,165)" d="m0 0 5 1 1 3-1 2h-6v-5z" fill="#D7D7D7"/>
<path transform="translate(1176,994)" d="m0 0 4 1 1 5-2 2h-3z" fill="#0B0B0B"/>
<path transform="translate(444,172)" d="m0 0h6l1 4-2 2-5-1z" fill="#D8D8D8"/>
<path transform="translate(472,171)" d="m0 0 1 3h4v-2h2l2 7h-2v-4l-7 2-1 2h-2l2-7z" fill="#353535"/>
<path transform="translate(1220,1018)" d="m0 0h4v2l-3 1v3l4 2-1 1h-5l-1-1v-6z" fill="#ECECEC"/>
<path transform="translate(614,165)" d="m0 0 3 3-2 4-5-1v-5z" fill="#DADADA"/>
<path transform="translate(789,163)" d="m0 0 6 2-1 2-8-1 1 3 6 2-4 1-4-2v-5z" fill="#4A4A4A"/>
<path transform="translate(195,350)" d="m0 0h1v10h-4v-7z" fill="#0F0F0F"/>
<path transform="translate(163,350)" d="m0 0h1v10h-4v-7z" fill="#0F0F0F"/>
<path transform="translate(1158,995)" d="m0 0 5 1v3h-5l1 2 4 2h-5l-1-1v-6z" fill="#bbb"/>
<path transform="translate(793,172)" d="m0 0h2l1 6-1 1h-8l-3-3 8 2z" fill="#5E5E5E"/>
<path transform="translate(1236,1018)" d="m0 0h5v2h-2v7h-3z" fill="#D6D6D6"/>
<path transform="translate(574,164)" d="m0 0h12v1l-5 1-1 13h-1l-1-13-4-1z" fill="#353535"/>
<path transform="translate(843,850)" d="m0 0 4 1-4 4-1 8-2-2v-6z" fill="#787878"/>
<path transform="translate(658,115)" d="m0 0h2l4 7-4 1-4-7z" fill="#0F0F0F"/>
<path transform="translate(1225,1019)" d="m0 0h1v5l-5 1-1-4z" fill="#131313"/>
<path transform="translate(1126,1018)" d="m0 0h2l-1 7-1 2h-3v-6h2z" fill="#EBEBEB"/>
<path transform="translate(1188,1018)" d="m0 0 4 2-1 7h-3z" fill="#D2D2D2"/>
<path transform="translate(1210,994)" d="m0 0h2l1 6-1 2-3-1v-6z" fill="#191919"/>
</svg>
