<?xml version="1.0" encoding="UTF-8"?>
<svg version="1.1" viewBox="0 0 1300 1140" width="1300" height="1140" xmlns="http://www.w3.org/2000/svg">
<path transform="translate(0)" d="m0 0h1300v1140h-1300z" fill="#010101"/>
<path transform="translate(615,88)" d="m0 0 5 1 7 1 1 1 19 1 8 10 5 6 8 7 6 10 10 9 4 4 2 5v3l3 1v3l4 2 4 4 6 4 1 4-4 4h-2l1 9 1 2 8 4 5 5v13l4 2 6 4 9 2 5 2-1 3-6 2-1 26-2 5 1 6 8 5 4 5 6 19 5 6 11 6 7 8v3h2l7 11 6 10 4 11 3 5v2l5 2 3 3 3 1 5 10v26h9l9-7h7l12 4 11 13 5 7 2 7 6 8 4 10 5 12 1 3v36l-17 3-11 1v13l2 5v3l3 1-1 14 9 4 2 2 2 6v10l-2 7v15l5 5 5 3 2-4 1-1h5l6 7 6 5v2l9 1 2-2h6l3 5v6l3 10 6 2 4 3-1 4-5 4 1 5 7 8 6 7 3 2v2l7-1v-5l7-2 2 2 2 6 3 2 1 7-1 4 6 10 2 2h5l15-6 7-2v-5l2-3 1-11 6-8 2-6 3-7-5-1-7-1-1-3-6-1-11-4-4-5v-6l2-10 5-2 2-5h10l2-5 4-6 4-1 5 5 9 3 7 6 9 1 15-1 11-8 17 1 2 5-1 4-4 1-3 13-6 4-2 3-9 2-1 23-3 7-2 6-6 3-1 5v13l7 10 3 6 6 7 12 3 3 3 13 3 12 14 4 6 3 8 3 3 1 7-2 12-4 6-1 3v10l2 4 2 8 6 12 13 20 3 6 8 8 5 2 7 2 9 4 9 3 9 10 2 2 9 2 4 6 4 4 12 1 3 3v8l-4 10-4 4-5 1-2 4-3 5-1 3-7 3-16 9-5 3-6 8-6 3-5 4-7 13-2 1-6-4-5-3 2 6 4 4 1 5-9 6-9 3h-15l-5-8 2-6 4-9v-8l-5-6-3-4-6-3-14-2 2 3-1 5h-5l-3-3h-5l-4 4-5-1-6-1-19 7-6 2-3 4h-6l-2-2-9 1-13 5h-4l-2 4-8 9-5 4-10 5-4 9-14-2-9 2h-17l-8-4-8-12-2-12-3-7-4-4v-2l-7-1-12-7-9-3v-8l-4 7-3 1-4-4 1-5 1-3-14-4-3-1-2-2-1 1h-7l-10-10 1-7-2 2-7-1-4-2h-7l-7 1-1-5-3-7-5-8v-6l1-2-5-1-4-10-3-5 1-7 5-5 1-4-6 2-9 8-9 6-8 6-5 3h-2l-2 6-5 5-7 4h-5l-1 1h-9l-3-5-12-3-11-1-1-1-18-3-10-3-4-9-1-5-6-2-1-1v-7l-3-1-2-13 7-8-4-3v-8l2-6h-2v-5l2-4-2-10 2-8 4-5 7-5 1-3 2-1h7l11 6 2 2v5l-7 7-9 3-1 6-4 4-3 2v2h7l2-4 4-1 10 5 5 2h5l-1-8-2 1h-6l-2-3 1-4 13-13 5-8 3-3 1-5h-3-7l-4-9-8-4-12-2-11-7h-7l-4 1 1 8 3 1 2 3v12l-6 7-7 1-5-3-5-13v-2l-5-2-7-6-2-8-8 1-2 5 4 8 2 10 5 10 7 3 9 1 4 4v16l4 1 3 3v6l-2 3v15l-5 1-10-11-2-4-6-3-7-1-8-9v-4l5-2 1-3-2-1-1 3-9 3-6 1-5-3-1-8-4-2-1-8 1-5h-9l-2-5 1-3-6-2h-2l-7 6 1 9 3 4-1 3h-6l1 10 4 1h8l3 3h8l1 2 11 3h10l5 7 6 2 10 1 6 9v2l4 2 6 6 1 5 1 1 2 19 1 1v10l-9 8-4 3h-17v2l-4 2-13 1-16 4-9 3-13 5-19 2-5 3h-23l-12 3-1 1-21 2-1 1-12 2-1 1-12 2-1 1-22 3h-15l-13-2-5-6-6-10-3-3-10-29v-5l-5-4-1-16-7-10-3-20-4-8-3-13-4-12-9-13-6-8-4-4-5-8-9-8-12-9-17-6-8-7-4-5-1-10-1-1-1-22-2-4-2-11-8-10-3-6-7-10 2-4-1-4-7-6-6-3v-2h-2l-5-5v-2l-3-1v-2h-2v-2h-2l-3-4-8 1-3-4-1-6-5-6-2-6-4-9-9-4-5-5-4-5v-45l1-13 1-2 1-11v-15l-2-12-8-10v-2h-3l-5-5-7-4-3-9-7-9-16-12-5-6-12-6-4-3-9-3-1-3-7-2-1-7 11-1 11-2 1-1 7-1 39-3 14-1h10l1 1h24l10-1 1-1 17-1 1-1 16-1h11l8 2 18 1 3 2h7l1-1 24-1 8-3 11-1 6-1 4 1h15l1-1h6l3 5v-6l-3-4v-4l15-3 2-5 2-2h7l-1-11h-3l-1-4 1-2 8-3 9-9h3l2-4 14-15 3-1 5-5 8-6h2l2-5 8-12 3-6 7-6-1-6 2-4 2-9 4-11 7-6 7-9 12-12 5-3 6-7h2l2-7 5-4 4-2 7-8 8-5 3-3 5-4 6-7 4-2h9l1-3 6-3h9l2-5-1-5 2-2 8 1v2l11-1 6-8z" fill="#EDEDED"/>
<path transform="translate(50,764)" d="m0 0h8l1 2 1-2h6l3 3 3-3h7l2 4v31h-8l-1-27-3-1v28h-8v-28h-3v28h-8z" fill="#7F7F7F"/>
<path transform="translate(1098,374)" d="m0 0h8 3 6l2 3 3-3h6l3 5v30h-8l-1-27-3-1v28h-8v-28h-3v28h-8z" fill="#7F7F7F"/>
<path transform="translate(658,737)" d="m0 0h7l11 6 2 2v5l-7 7-9 3-1 6-4 4-3 2-1 3-7 4-4-1v-5l2-4-2-10 2-8 4-5 7-5 1-3z" fill="#E6E6E6"/>
<path transform="translate(101,1077)" d="m0 0h7 3 6l1 3 4-3h6l2 3 1 5v25h-8v-26h-3l-1 26h-7l-1-26h-3v26h-7z" fill="#E3E3E3"/>
<path transform="translate(1131,374)" d="m0 0h8v28h4v-28h8v39l-2 5-3 2h-13v-7l8-1v-4l-1 1h-6l-2-1-1-3z" fill="#7F7F7F"/>
<path transform="translate(83,764)" d="m0 0h8v28h4v-28h8v39l-3 6-2 1h-13v-7l8-1v-4l-1 1h-6l-3-5z" fill="#7F7F7F"/>
<path transform="translate(132,1077)" d="m0 0h7l1 27 3-1 1-26h7v39l-4 4h-14v-6l9-1v-3l-6 1-3-2-1-3z" fill="#E6E6E6"/>
<path transform="translate(32,764)" d="m0 0h10l4 4 1 3v28h-7l-1-2-2 2h-7l-3-5v-7l3-5 6-5h2l1-6h-4v5h-8v-6l2-4z" fill="#7F7F7F"/>
<path transform="translate(1080,374)" d="m0 0h10l4 4 1 3v28h-7l-1-2-2 2h-7l-3-5v-7l2-5 9-6 1-5h-4v5h-8l1-8z" fill="#7F7F7F"/>
<path transform="translate(1048,374)" d="m0 0h10l4 4 1 3v28h-7l-1-2-2 2h-6l-3-3-1-2v-7l2-5 9-6 1-5h-4v5h-8l1-8z" fill="#7F7F7F"/>
<path transform="translate(56,1077)" d="m0 0h8l5 4 1 4v25h-7v-2h-2v2l-6 1-5-5v-8l5-6 6-4v-4h-2l-2 5h-6l-1-3 3-7z" fill="#DEDEDE"/>
<path transform="translate(86,1077)" d="m0 0h8l5 5v28h-6-3l-6 1-4-4v-10l5-5 6-4 1-4h-3l-2 5h-6l-1-1 1-7 2-3z" fill="#E3E3E3"/>
<path transform="translate(979)" d="m0 0h20v24l-3 5-2 1h-13v-7l10-1-1-5-2 2h-6l-2-1-1-4z" fill="#7F7F7F"/>
<path transform="translate(83)" d="m0 0h20v24l-3 5-2 1h-13v-7l10-1-1-5-2 2h-6l-2-1-1-4z" fill="#7F7F7F"/>
<path transform="translate(0,764)" d="m0 0h10l4 4 1 3v28h-7l-1-2-2 2h-5z" fill="#7F7F7F"/>
<path transform="translate(928)" d="m0 0h15v19h-7l-1-2-2 2h-7l-3-5v-7l3-6z" fill="#7F7F7F"/>
<path transform="translate(32)" d="m0 0h15v19h-7l-1-2-2 2h-7l-3-5v-7l3-6z" fill="#7F7F7F"/>
<path transform="translate(896)" d="m0 0h15v19h-7l-1-2-2 2h-6l-3-3-1-2v-7l3-6z" fill="#7F7F7F"/>
<path transform="translate(18,756)" d="m0 0h8v43h-8z" fill="#7F7F7F"/>
<path transform="translate(1066,366)" d="m0 0h8v43h-8z" fill="#7F7F7F"/>
<path transform="translate(71,1070)" d="m0 0h8v39l-1 1h-7z" fill="#D6D6D6"/>
<path transform="translate(0)" d="m0 0h15v19h-7l-1-2-2 2h-5z" fill="#7F7F7F"/>
<path transform="translate(1246,510)" d="m0 0 7 1 2 2 1 21h-5-2-5l-2-2v-8l6-5h2v-4h-3v3h-6l2-6z" fill="#777"/>
<path transform="translate(46,510)" d="m0 0 7 1 2 2 1 21h-5-2-5l-2-2v-8l6-5h2v-4h-3v3h-6l2-6z" fill="#777"/>
<path transform="translate(1246,770)" d="m0 0 8 1 1 2 1 21h-5-3l-5-1-1-1v-8l7-6 1-3h-3v3h-5v-5z" fill="#777"/>
<path transform="translate(1096,640)" d="m0 0 8 1 1 2v21l-5-1-1 1h-5l-2-2v-8l7-6 1-3h-3v3h-5v-5z" fill="#777"/>
<path transform="translate(1246,250)" d="m0 0 8 1 1 2 1 21h-5-3l-5-1-1-1v-8l7-6 1-3h-3v3h-5v-5z" fill="#777"/>
<path transform="translate(46,250)" d="m0 0 8 1 1 2 1 21h-5-3l-5-1-1-1v-8l7-6 1-3h-3v3h-5v-5z" fill="#777"/>
<path transform="translate(1096,120)" d="m0 0 8 1 1 2v21l-5-1-1 1h-5l-2-2v-8l7-6 1-3h-3v3h-5v-5z" fill="#777"/>
<path transform="translate(496,120)" d="m0 0 8 1 1 2v21l-5-1-1 1h-5l-2-2v-8l7-6 1-3h-3v3h-5v-5z" fill="#777"/>
<path transform="translate(796,900)" d="m0 0 7 1 2 2 1 21h-5-2-5l-2-2v-8l7-6 1-3h-3v3h-5v-5z" fill="#777"/>
<path transform="translate(196,900)" d="m0 0 7 1 2 2 1 21h-5-2-5l-2-2v-8l7-6 1-3h-3v3h-5v-5z" fill="#777"/>
<path transform="translate(196,640)" d="m0 0 7 1 2 2 1 5-1 16-5-1-1 1h-5l-2-2v-8l7-6 1-3h-3v3h-5v-5z" fill="#777"/>
<path transform="translate(946,510)" d="m0 0h6l3 3 1 21h-5v-2l-3 2-5-1-1-1v-8l7-6 1-3h-3v3h-5v-5z" fill="#777"/>
<path transform="translate(796,120)" d="m0 0 7 1 2 2 1 5-1 16-5-1-1 1h-5l-2-2v-8l7-6 1-3h-3v3h-5v-5z" fill="#777"/>
<path transform="translate(196,120)" d="m0 0 7 1 2 2 1 5-1 16-5-1-1 1h-5l-2-2v-8l7-6 1-3h-3v3h-5v-5z" fill="#777"/>
<path transform="translate(496,900)" d="m0 0 7 1 2 2v21l-5-1-1 1h-5l-2-2v-8l6-5h2v-4h-3v3h-5v-5z" fill="#777"/>
<path transform="translate(946,250)" d="m0 0 7 1 2 2v21l-6-1-5 1-2-2v-8l7-6 1-3h-3v3h-5v-5z" fill="#777"/>
<path transform="translate(346,250)" d="m0 0 7 1 2 2v21l-6-1-5 1-2-2v-8l7-6 1-3h-3v3h-5v-5z" fill="#777"/>
<path transform="translate(346,770)" d="m0 0h5l5 10v14h-5-3l-5-1-1-1v-8l7-6 1-3h-3v3h-5v-5z" fill="#777"/>
<path transform="translate(1115,1102)" d="m0 0h3v3h2v-3h4l1 2 1-2h6v3h2v-3h4l1 2 1-2h6v3h2v-3h4l1 2 1-2 3 1-3 8h-3l-1-4-1 4h-4l-2-7-3 7h-3l-1-4-1 4h-4l-2-7-2 7h-4l-1-4-1 4h-4z" fill="#C9C9C9"/>
<path transform="translate(946,1030)" d="m0 0h6l3 3v18h-13v-7l7-6 1-3h-3v3h-5v-5z" fill="#767676"/>
<path transform="translate(346,1030)" d="m0 0h6l3 3v18h-13v-7l7-6 1-3h-3v3h-5v-5z" fill="#767676"/>
<path transform="translate(1246,1030)" d="m0 0 7 1 2 2v18h-13v-7l6-5h2v-4h-3v3h-6l2-6z" fill="#767676"/>
<path transform="translate(646,1030)" d="m0 0 7 1 2 2v18h-13v-7l6-5h2v-4h-3v3h-6l2-6z" fill="#767676"/>
<path transform="translate(46,1030)" d="m0 0 7 1 2 2v18h-13v-7l6-5h2v-4h-3v3h-6l2-6z" fill="#767676"/>
<path transform="translate(1246)" d="m0 0h9l1 14h-5-2-5l-2-2v-8z" fill="#737373"/>
<path transform="translate(646)" d="m0 0h9l1 14h-5-2-5l-2-2v-8z" fill="#737373"/>
<path transform="translate(346)" d="m0 0h9l1 14h-5v-2l-3 2-5-1-1-1v-8z" fill="#737373"/>
<path transform="translate(969)" d="m0 0h8v19h-8z" fill="#7F7F7F"/>
<path transform="translate(957)" d="m0 0h8v19h-8z" fill="#7F7F7F"/>
<path transform="translate(946)" d="m0 0h8v19h-8z" fill="#7F7F7F"/>
<path transform="translate(914)" d="m0 0h8v19h-8z" fill="#7F7F7F"/>
<path transform="translate(73)" d="m0 0h8v19h-8z" fill="#7F7F7F"/>
<path transform="translate(61)" d="m0 0h8v19h-8z" fill="#7F7F7F"/>
<path transform="translate(50)" d="m0 0h8v19h-8z" fill="#7F7F7F"/>
<path transform="translate(18)" d="m0 0h8v19h-8z" fill="#7F7F7F"/>
<path transform="translate(808,852)" d="m0 0 5 1 1 3h2v2l7-1 1 9 1 3-3 5-2 1-1-7-6-11-1-3z" fill="#050505"/>
<path transform="translate(1236,1102)" d="m0 0h13l1 2v7h-3v-7l-2 1-1 6-3-1v-6h-2v7h-3z" fill="#D3D3D3"/>
<path transform="translate(1188,1102)" d="m0 0h13l1 2v7h-3v-7l-2 1-1 6-3-1v-6h-2v7h-3z" fill="#D1D1D1"/>
<path transform="translate(1115,1102)" d="m0 0h3v3h2v-3h4l1 2 1-2h4l-3 9h-4l-1-4-1 4h-4z" fill="#C6C6C6"/>
<path transform="translate(1093,912)" d="m0 0 4 2 3 5 4 4-3 1h-2-5l-2-2v-8z" fill="#777"/>
<path transform="translate(1172,1077)" d="m0 0h6l2 1 1 5-3 4h-6z" fill="#B3B3B3"/>
<path transform="translate(645,770)" d="m0 0 8 1v4l-7 4-4-1v-5z" fill="#757575"/>
<path transform="translate(1198,1077)" d="m0 0h3l2 6 3-6h3v10h-2l-1-4-2 4h-2l-1-3-1 3h-2z" fill="#bbb"/>
<path transform="translate(1147,1079)" d="m0 0h6v9l-2 3h-5v-2h4l1-2-5-1v-6z" fill="#848484"/>
<path transform="translate(1227,1102)" d="m0 0 7 1v6l-2 2h-5l-1-1v-7z" fill="#AFAFAF"/>
<path transform="translate(1148,1102)" d="m0 0h4l1 2 1-2 3 1-3 8h-3l-1-4-1 4h-4v-4h2z" fill="#D1D1D1"/>
<path transform="translate(1179,1102)" d="m0 0h5l2 2v7h-8v-5z" fill="#D1D1D1"/>
<path transform="translate(1203,1102)" d="m0 0h3l2 3 1-3h3l-3 10-2 3h-4v-2l2-1-1-6z" fill="#D0D0D0"/>
<path transform="translate(1164,1102)" d="m0 0h5l2 2v7h-7l-1-5z" fill="#C2C2C2"/>
<path transform="translate(987)" d="m0 0h4v12h-4z" fill="#010101"/>
<path transform="translate(91)" d="m0 0h4v12h-4z" fill="#010101"/>
<path transform="translate(1237,1077)" d="m0 0 4 1-3 1 3 2v5l-5 1-1-1v-7z" fill="#8B8B8B"/>
<path transform="translate(1125,1079)" d="m0 0h10l1 1v7l-2-2v-4l-2-1-1 7h-1l-1-6-2-1v7h-2z" fill="#CACACA"/>
<path transform="translate(1219,1102)" d="m0 0h6v2l-4 1v4l4 1-1 1h-5l-1-1v-7z" fill="#D3D3D3"/>
<path transform="translate(1115,1102)" d="m0 0h3v3l3-1v7h-4z" fill="#ccc"/>
<path transform="translate(1173,1099)" d="m0 0h3v12h-3z" fill="#ccc"/>
<path transform="translate(1139,1079)" d="m0 0 5 1v7h-6l1-5h3v-2z" fill="#9E9E9E"/>
<path transform="translate(91,1095)" d="m0 0h1v8l-4 1-1-5z" fill="#010101"/>
<path transform="translate(1214,1077)" d="m0 0h2v6l2 1h-2l-1 3-1-2-4-1 2-4z" fill="#A1A1A1"/>
<path transform="translate(643,783)" d="m0 0 2 4 2 3v4l-4-1-1-1v-8z" fill="#7F7F7F"/>
<path transform="translate(1156,1079)" d="m0 0 5 1v3l-4 1 4 1v2h-5l-1-1v-6z" fill="#A6A6A6"/>
<path transform="translate(61,1095)" d="m0 0h1v8l-4 1-1-5z" fill="#010101"/>
<path transform="translate(1174,1078)" d="m0 0 4 1 1 5-5 2z" fill="#010101"/>
<path transform="translate(3,771)" d="m0 0h4l-1 6-6 3v-4h3z" fill="#010101"/>
<path transform="translate(1198,1077)" d="m0 0h3l2 7h-2l-1 3h-2z" fill="#989898"/>
<path transform="translate(1140,1102)" d="m0 0h6v3h2l-1 3h-3l-1-4-2 3-2-1z" fill="#B8B8B8"/>
<path transform="translate(1086,393)" d="m0 0h1v9h-4l1-7z" fill="#010101"/>
<path transform="translate(1054,393)" d="m0 0h1v9h-4l1-7z" fill="#010101"/>
<path transform="translate(934,3)" d="m0 0h1v9h-4l1-7z" fill="#010101"/>
<path transform="translate(902,3)" d="m0 0h1v9h-4l1-7z" fill="#010101"/>
<path transform="translate(38,3)" d="m0 0h1v9h-4l1-7z" fill="#010101"/>
<path transform="translate(6,3)" d="m0 0h1v9h-4l1-7z" fill="#010101"/>
<path transform="translate(1246,1102)" d="m0 0h3l1 2v7h-3v-7l-2-1z" fill="#CECECE"/>
<path transform="translate(1241,1102)" d="m0 0h5l-2 9-3-1-1-7z" fill="#D2D2D2"/>
<path transform="translate(1198,1102)" d="m0 0h3l1 2v7h-3v-7l-2-1z" fill="#CECECE"/>
<path transform="translate(38,783)" d="m0 0h1v9l-4-1 1-6z" fill="#010101"/>
<path transform="translate(6,783)" d="m0 0h1v9l-4-1 1-6z" fill="#010101"/>
<path transform="translate(1130,1102)" d="m0 0h2v5l3-1v5h-4z" fill="#ddd"/>
<path transform="translate(1179,1105)" d="m0 0 4 1-1 4 2 1h-6v-5z" fill="#ABABAB"/>
<path transform="translate(1188,1102)" d="m0 0 3 1v8h-3z" fill="#D8D8D8"/>
</svg>
